<svg xmlns="http://www.w3.org/2000/svg" width="45" height="45" viewBox="0 0 45 45" fill="none">
  <g clip-path="url(#clip0_1_1644)">
    <path d="M43.8852 25.9773L26.4275 43.4576C25.3976 44.4858 24.0452 45.0001 22.6932 45.0001C21.3416 45.0001 19.9906 44.4865 18.9616 43.4593L1.2977 25.9876C0.114953 24.8066 -0.234893 23.0546 0.400597 21.5179C1.03712 19.9798 2.52473 18.9859 4.19088 18.9859H10.0171V13.8879C10.0171 12.917 10.8043 12.1297 11.7752 12.1297C12.7461 12.1297 13.533 12.917 13.533 13.8879V20.7437C13.533 21.7146 12.7461 22.5015 11.7752 22.5015H4.19088C3.84962 22.5015 3.70508 22.7274 3.64946 22.8623C3.58182 23.0254 3.54921 23.2671 3.7758 23.4937L21.4401 40.9654C22.1339 41.6586 23.2535 41.6586 23.9419 40.9712L41.3974 23.493C41.6237 23.2664 41.5907 23.0247 41.5231 22.8616C41.4675 22.7274 41.3229 22.5015 40.9817 22.5015H33.7492C32.7783 22.5015 31.9914 21.7146 31.9914 20.7437V13.8875C31.9914 12.9166 32.7783 12.1297 33.7492 12.1297C34.7202 12.1297 35.507 12.9166 35.507 13.8875V18.9855H40.9817C42.6464 18.9855 44.1337 19.9784 44.7709 21.5151C45.4071 23.0498 45.0597 24.8014 43.8852 25.9773ZM11.7752 3.51609C12.7461 3.51609 13.533 2.72885 13.533 1.75793C13.533 0.787018 12.7461 0.00012207 11.7752 0.00012207C10.8043 0.00012207 10.0171 0.787018 10.0171 1.75793C10.0171 2.72885 10.8043 3.51609 11.7752 3.51609ZM11.7752 9.66878C12.7461 9.66878 13.533 8.88154 13.533 7.91062C13.533 6.94005 12.7461 6.15281 11.7752 6.15281C10.8043 6.15281 10.0171 6.94005 10.0171 7.91062C10.0171 8.88154 10.8043 9.66878 11.7752 9.66878ZM33.7492 3.51609C34.7202 3.51609 35.507 2.72885 35.507 1.75793C35.507 0.787018 34.7202 0.00012207 33.7492 0.00012207C32.7783 0.00012207 31.9914 0.787018 31.9914 1.75793C31.9914 2.72885 32.7783 3.51609 33.7492 3.51609ZM33.7492 9.66878C34.7202 9.66878 35.507 8.88154 35.507 7.91062C35.507 6.94005 34.7202 6.15281 33.7492 6.15281C32.7783 6.15281 31.9914 6.94005 31.9914 7.91062C31.9914 8.88154 32.7783 9.66878 33.7492 9.66878ZM23.6968 26.369H21.0789C20.6601 26.369 20.2096 26.1284 20.2096 25.6C20.2096 24.6291 19.4224 23.8422 18.4518 23.8422C17.4809 23.8422 16.6937 24.6291 16.6937 25.6C16.6937 27.949 18.5349 29.7992 20.9145 29.8809V30.8518C20.9145 31.8227 21.7014 32.6096 22.6723 32.6096C23.6432 32.6096 24.4304 31.8227 24.4304 30.8518V29.8338C26.8485 29.4974 28.6512 27.5174 28.6512 25.0507V23.9819C28.6512 22.6536 28.1311 21.4125 27.187 20.4879C26.2562 19.5757 25.0165 19.0738 23.6968 19.0738H22.0859C21.3117 19.0738 20.6573 18.3892 20.6573 17.5793V16.9383C20.6573 16.1514 21.2715 15.5578 22.0859 15.5578H23.6092C24.0569 15.5578 24.52 15.8575 24.52 16.3591C24.52 17.33 25.3073 18.1169 26.2779 18.1169C27.2488 18.1169 28.036 17.33 28.036 16.3591C28.036 14.2521 26.4801 12.4943 24.4304 12.1177V10.9871C24.4304 10.0162 23.6435 9.22932 22.6726 9.22932C21.7017 9.22932 20.9145 10.0162 20.9145 10.9871V12.1781C20.0445 12.3834 19.2476 12.817 18.6012 13.4494C17.6598 14.3706 17.1413 15.6096 17.1413 16.9383V17.5793C17.1413 20.342 19.3596 22.5894 22.0859 22.5894H23.6968C24.5036 22.5894 25.1353 23.2012 25.1353 23.9819V25.0507C25.1353 25.9162 24.4116 26.369 23.6968 26.369Z" fill="white"/>
  </g>
  <defs>
    <clipPath id="clip0_1_1644">
      <rect width="45" height="45" fill="white"/>
    </clipPath>
  </defs>
</svg>