<svg xmlns="http://www.w3.org/2000/svg" width="52" height="54" viewBox="0 0 52 54" fill="none">
  <g clip-path="url(#clip0_1_1254)" filter="url(#filter0_d_1_1254)">
    <path d="M26.0306 4.95312L15.6406 10.9531V22.953L26.0306 28.9532L36.4208 22.953V10.9531L26.0306 4.95312ZM22.0186 18.8446L21.0236 19.8398L18.1371 16.9531L21.0236 14.0667L22.0186 15.0617L20.1271 16.9531L22.0186 18.8446ZM25.0039 20.5801L23.7453 19.9508L27.0575 13.3262L28.3161 13.9555L25.0039 20.5801ZM31.0378 19.8396L30.0426 18.8446L31.9343 16.9531L30.0426 15.0617L31.0378 14.0665L33.9243 16.9531L31.0378 19.8396Z" fill="#FF5600"/>
  </g>
  <defs>
    <filter id="filter0_d_1_1254" x="-1" y="0" width="54" height="54" filterUnits="userSpaceOnUse" color-interpolation-filters="sRGB">
      <feFlood flood-opacity="0" result="BackgroundImageFix"/>
      <feColorMatrix in="SourceAlpha" type="matrix" values="0 0 0 0 0 0 0 0 0 0 0 0 0 0 0 0 0 0 127 0" result="hardAlpha"/>
      <feOffset dy="10"/>
      <feGaussianBlur stdDeviation="7.5"/>
      <feColorMatrix type="matrix" values="0 0 0 0 1 0 0 0 0 0.337255 0 0 0 0 0 0 0 0 0.2 0"/>
      <feBlend mode="normal" in2="BackgroundImageFix" result="effect1_dropShadow_1_1254"/>
      <feBlend mode="normal" in="SourceGraphic" in2="effect1_dropShadow_1_1254" result="shape"/>
    </filter>
    <clipPath id="clip0_1_1254">
      <rect width="24" height="24" fill="white" transform="translate(14 5)"/>
    </clipPath>
  </defs>
</svg>