<svg width="201" height="59" viewBox="0 0 201 59" fill="none" xmlns="http://www.w3.org/2000/svg">
<path d="M27.5117 3.08789C27.7396 3.38086 28 3.60872 28.293 3.77148C28.6185 3.93424 28.9115 4.14583 29.1719 4.40625C29.3672 4.63411 29.4974 4.7806 29.5625 4.8457C29.5625 5.20378 29.4811 5.54557 29.3184 5.87109C29.1882 6.19661 29.1068 6.55469 29.0742 6.94531C29.0091 7.79167 28.8789 8.45898 28.6836 8.94727C28.4883 9.40299 28.4069 9.82617 28.4395 10.2168C28.4395 10.5098 28.5208 10.819 28.6836 11.1445C28.8464 11.4701 28.7975 11.763 28.5371 12.0234C28.3743 12.1862 28.1953 12.3001 28 12.3652C27.8372 12.3978 27.6257 12.4466 27.3652 12.5117C27.1048 12.5768 26.8444 12.6582 26.584 12.7559C26.3561 12.821 26.112 12.8535 25.8516 12.8535C25.6888 12.821 25.5098 12.7884 25.3145 12.7559C25.1517 12.7233 24.9727 12.6908 24.7773 12.6582C24.6797 12.5605 24.5983 12.4792 24.5332 12.4141C24.5007 12.3164 24.4518 12.1862 24.3867 12.0234C24.4518 11.8607 24.4681 11.7142 24.4355 11.584C24.4355 11.4212 24.4518 11.2585 24.4844 11.0957C24.5169 10.64 24.6309 10.2331 24.8262 9.875C25.054 9.48438 25.2168 9.09375 25.3145 8.70312C25.3145 8.41016 25.3633 8.16602 25.4609 7.9707C25.4609 7.71029 25.5098 7.48242 25.6074 7.28711C25.7051 7.0918 25.7376 6.89648 25.7051 6.70117C25.8353 6.53841 25.9167 6.35938 25.9492 6.16406C25.9818 5.9362 26.0306 5.69206 26.0957 5.43164C25.8027 5.30143 25.4772 5.23633 25.1191 5.23633C24.7611 5.20378 24.4518 5.26888 24.1914 5.43164C22.9544 5.46419 21.9453 5.80599 21.1641 6.45703C20.3828 7.07552 19.748 7.80794 19.2598 8.6543C18.9993 8.94727 18.7389 9.28906 18.4785 9.67969C18.2507 10.0378 18.0065 10.3958 17.7461 10.7539C17.4206 11.2422 17.1602 11.6165 16.9648 11.877C16.7695 12.1374 16.5905 12.3978 16.4277 12.6582C16.2975 12.8535 16.1836 13.0651 16.0859 13.293C15.9883 13.4883 15.8743 13.6999 15.7441 13.9277C15.6465 14.1556 15.5326 14.3835 15.4023 14.6113C15.2721 14.8066 15.1582 15.0345 15.0605 15.2949C15.028 15.3926 14.9954 15.4902 14.9629 15.5879C14.9303 15.6855 14.8978 15.7669 14.8652 15.832C14.8327 15.9297 14.8327 16.0436 14.8652 16.1738C14.8978 16.2715 14.9303 16.3529 14.9629 16.418C14.9954 16.5807 15.0117 16.7272 15.0117 16.8574C15.0117 16.9876 15.0443 17.1341 15.1094 17.2969C15.3047 17.6224 15.4349 17.8828 15.5 18.0781C15.5651 18.2409 15.6465 18.4036 15.7441 18.5664C15.8418 18.7292 15.9395 18.8757 16.0371 19.0059C16.1673 19.1035 16.2812 19.2174 16.3789 19.3477C16.737 19.4128 17.0625 19.4779 17.3555 19.543C17.681 19.6081 17.9902 19.6569 18.2832 19.6895C18.6413 19.722 18.9831 19.6895 19.3086 19.5918C19.6667 19.4941 20.0085 19.4779 20.334 19.543C20.627 19.3477 20.9036 19.3639 21.1641 19.5918C21.4245 19.8197 21.5872 20.0312 21.6523 20.2266C21.6849 20.4544 21.6686 20.7148 21.6035 21.0078C21.571 21.3008 21.5059 21.5286 21.4082 21.6914C21.278 21.9193 21.099 22.1146 20.8711 22.2773C20.6758 22.4076 20.4967 22.5215 20.334 22.6191C19.9759 22.6517 19.6504 22.7168 19.3574 22.8145C19.0645 22.8796 18.7552 22.8958 18.4297 22.8633C17.6484 23.0586 16.8184 23.2539 15.9395 23.4492C15.0931 23.6445 14.2467 23.8724 13.4004 24.1328C13.0749 24.1979 12.8796 24.263 12.8145 24.3281C12.7493 24.3932 12.6354 24.4258 12.4727 24.4258C12.0169 24.5885 11.5938 24.7676 11.2031 24.9629C10.8125 25.1582 10.4382 25.3861 10.0801 25.6465C9.78711 25.9069 9.55924 26.0859 9.39648 26.1836C9.23372 26.2812 9.11979 26.444 9.05469 26.6719C8.63151 27.1602 8.15951 27.6159 7.63867 28.0391L6.32031 29.6992C6.15755 29.862 6.0599 29.9759 6.02734 30.041C6.02734 30.1061 6.01107 30.2201 5.97852 30.3828C5.97852 30.7083 5.92969 31.0501 5.83203 31.4082C5.76693 31.7663 5.7181 32.0918 5.68555 32.3848C5.65299 32.7754 5.65299 33.1335 5.68555 33.459C5.7181 33.7845 5.81576 34.0775 5.97852 34.3379C6.04362 34.403 6.10872 34.5007 6.17383 34.6309C6.27148 34.7285 6.35286 34.8587 6.41797 35.0215C6.54818 35.2493 6.66211 35.4447 6.75977 35.6074C6.85742 35.7376 7.03646 35.8841 7.29688 36.0469C7.39453 36.112 7.50846 36.1771 7.63867 36.2422C7.76888 36.3073 7.86654 36.3398 7.93164 36.3398C7.99674 36.3398 8.07812 36.3236 8.17578 36.291C8.30599 36.2259 8.41992 36.1771 8.51758 36.1445C8.61523 36.112 8.71289 36.0957 8.81055 36.0957C8.9082 36.0957 8.98958 36.0632 9.05469 35.998C9.60807 35.8353 10.0801 35.6074 10.4707 35.3145C10.8939 35.0215 11.3659 34.7611 11.8867 34.5332C12.0169 34.4681 12.1471 34.403 12.2773 34.3379C12.4401 34.2402 12.6029 34.1589 12.7656 34.0938C13.1562 33.8008 13.5469 33.5078 13.9375 33.2148C14.3607 32.9219 14.8327 32.6452 15.3535 32.3848C15.7116 32.222 16.0534 32.0267 16.3789 31.7988C16.7044 31.571 16.9974 31.3431 17.2578 31.1152C17.4206 30.8223 17.5833 30.5781 17.7461 30.3828C17.9414 30.1875 18.0879 29.9434 18.1855 29.6504C18.3158 29.6178 18.3971 29.5527 18.4297 29.4551C18.4948 29.3249 18.5762 29.2109 18.6738 29.1133C18.6087 28.9831 18.5599 28.8529 18.5273 28.7227C18.4948 28.5599 18.4297 28.446 18.332 28.3809C18.0391 28.4134 17.7461 28.3809 17.4531 28.2832C17.1602 28.1855 16.8346 28.1693 16.4766 28.2344C16.4115 28.2344 16.3301 28.2507 16.2324 28.2832C16.1348 28.3158 16.0371 28.3483 15.9395 28.3809C15.4186 28.4785 14.9141 28.6413 14.4258 28.8691C13.9701 29.097 13.5957 29.3737 13.3027 29.6992C13.2702 29.862 13.2051 29.9759 13.1074 30.041C13.0423 30.1061 12.9772 30.1875 12.9121 30.2852C12.7493 30.6107 12.6029 30.9525 12.4727 31.3105C12.375 31.6361 12.2122 31.9453 11.9844 32.2383C11.8867 32.2383 11.7891 32.1895 11.6914 32.0918C11.5938 31.9941 11.5286 31.8965 11.4961 31.7988C11.4961 31.7337 11.5124 31.6361 11.5449 31.5059C11.5775 31.3431 11.5938 31.2129 11.5938 31.1152C11.6263 31.0176 11.6263 30.9362 11.5938 30.8711C11.5612 30.7734 11.5612 30.6432 11.5938 30.4805C11.6263 30.2852 11.6589 30.0573 11.6914 29.7969C11.724 29.5365 11.7728 29.3249 11.8379 29.1621C11.9681 28.7064 12.0983 28.3971 12.2285 28.2344C12.3587 28.0391 12.5215 27.9089 12.7168 27.8438C12.7819 27.7461 12.8633 27.6647 12.9609 27.5996C13.0911 27.502 13.2376 27.4043 13.4004 27.3066C13.6608 27.1439 13.8236 27.0299 13.8887 26.9648C13.9538 26.8672 14.0352 26.7858 14.1328 26.7207C14.2956 26.6556 14.4746 26.5905 14.6699 26.5254C14.8978 26.4277 15.0931 26.3626 15.2559 26.3301C15.4837 26.2975 15.7116 26.2487 15.9395 26.1836C16.1999 26.0859 16.4766 26.0371 16.7695 26.0371C17.0951 26.1022 17.3229 26.151 17.4531 26.1836C17.5833 26.1836 17.6973 26.1673 17.7949 26.1348C17.9251 26.1022 18.0553 26.1022 18.1855 26.1348C18.2832 26.1348 18.3646 26.151 18.4297 26.1836C18.5273 26.1836 18.625 26.1836 18.7227 26.1836C18.918 26.151 19.097 26.1185 19.2598 26.0859C19.4551 26.0534 19.6178 26.1185 19.748 26.2812C20.041 26.3464 20.2852 26.4766 20.4805 26.6719C20.7083 26.8346 20.9036 27.0137 21.0664 27.209C21.1315 27.3066 21.1966 27.388 21.2617 27.4531C21.3268 27.5182 21.3919 27.6159 21.457 27.7461C21.6198 28.1367 21.6523 28.5599 21.5547 29.0156C21.4896 29.4714 21.3431 29.862 21.1152 30.1875C21.0827 30.3177 21.0339 30.4316 20.9688 30.5293C20.9036 30.5944 20.8385 30.6758 20.7734 30.7734C20.0573 31.4896 19.5527 32.1732 19.2598 32.8242C18.8366 33.1172 18.4622 33.4427 18.1367 33.8008C17.8438 34.1589 17.4857 34.4681 17.0625 34.7285C16.8346 34.9889 16.5579 35.2005 16.2324 35.3633C15.9395 35.4935 15.6628 35.6562 15.4023 35.8516C15.1094 36.0794 14.7839 36.3073 14.4258 36.5352C14.1003 36.763 13.7585 36.9583 13.4004 37.1211C13.1074 37.3164 12.7982 37.4629 12.4727 37.5605C12.082 37.821 11.6589 38.0326 11.2031 38.1953C10.7799 38.3581 10.373 38.5697 9.98242 38.8301C9.42904 38.9928 8.85938 39.2207 8.27344 39.5137C7.72005 39.8066 7.18294 40.0345 6.66211 40.1973C6.4668 40.2298 6.20638 40.1973 5.88086 40.0996C5.62044 40.0345 5.3112 39.8717 4.95312 39.6113C4.59505 39.3835 4.35091 39.1393 4.2207 38.8789C3.99284 38.8138 3.8138 38.651 3.68359 38.3906C3.58594 38.1302 3.45573 37.9023 3.29297 37.707C3.19531 37.5443 3.09766 37.3815 3 37.2188C2.86979 37.0234 2.75586 36.8118 2.6582 36.584C2.36523 36.1934 2.15365 35.8353 2.02344 35.5098C1.86068 35.0215 1.76302 34.7122 1.73047 34.582C1.66536 34.4518 1.60026 34.3053 1.53516 34.1426C1.47005 33.9798 1.40495 33.8333 1.33984 33.7031C1.24219 33.5729 1.14453 33.4427 1.04688 33.3125C0.916667 32.6615 0.981771 32.0104 1.24219 31.3594C1.47005 30.7083 1.69792 30.1549 1.92578 29.6992C2.05599 29.5365 2.15365 29.39 2.21875 29.2598C2.28385 29.097 2.34896 28.9342 2.41406 28.7715C2.57682 28.4785 2.73958 28.2181 2.90234 27.9902C3.0651 27.7298 3.22786 27.4694 3.39062 27.209C3.55339 26.9486 3.68359 26.6719 3.78125 26.3789C3.91146 26.0859 4.07422 25.8092 4.26953 25.5488C4.36719 25.1908 4.52995 24.9303 4.75781 24.7676C4.98568 24.5723 5.21354 24.3444 5.44141 24.084C5.60417 24.0189 5.73438 23.9375 5.83203 23.8398C5.96224 23.7422 6.09245 23.6445 6.22266 23.5469C6.97135 23.2214 7.63867 22.8958 8.22461 22.5703C8.8431 22.2448 9.47786 21.9518 10.1289 21.6914C11.1055 21.4961 12.0983 21.1868 13.1074 20.7637C12.847 20.4707 12.6354 20.0964 12.4727 19.6406C12.3424 19.1523 12.196 18.6478 12.0332 18.127C12.0007 17.9967 11.9518 17.8828 11.8867 17.7852C11.8216 17.6549 11.7728 17.5247 11.7402 17.3945C11.6751 17.069 11.6263 16.8737 11.5938 16.8086C11.5938 16.7435 11.5775 16.6784 11.5449 16.6133C11.5124 16.3854 11.4961 16.1576 11.4961 15.9297C11.4961 15.6693 11.4961 15.4089 11.4961 15.1484C11.4961 14.9857 11.4961 14.8066 11.4961 14.6113C11.4961 14.416 11.5286 14.237 11.5938 14.0742C11.724 13.7487 11.7728 13.5371 11.7402 13.4395C11.7402 13.3418 11.7565 13.2441 11.7891 13.1465C11.8216 13.0163 11.8542 12.9186 11.8867 12.8535C11.9518 12.7884 11.9844 12.6745 11.9844 12.5117C12.1471 12.2839 12.3099 12.0397 12.4727 11.7793C12.668 11.5189 12.847 11.2585 13.0098 10.998C13.2376 10.64 13.4492 10.3307 13.6445 10.0703C13.8398 9.8099 14.0026 9.5332 14.1328 9.24023C14.3932 9.07747 14.6048 8.86589 14.7676 8.60547C14.9629 8.34505 15.1745 8.11719 15.4023 7.92188C15.8255 7.43359 16.2324 6.96159 16.623 6.50586C17.0462 6.01758 17.5182 5.5944 18.0391 5.23633C18.3971 5.07357 18.7227 4.87826 19.0156 4.65039C19.3086 4.42253 19.6016 4.21094 19.8945 4.01562C20.1875 3.75521 20.4967 3.5599 20.8223 3.42969C21.1803 3.26693 21.5221 3.07161 21.8477 2.84375C22.0104 2.8112 22.1406 2.76237 22.2383 2.69727C22.3359 2.63216 22.4499 2.56706 22.5801 2.50195C22.8079 2.37174 23.1172 2.25781 23.5078 2.16016C23.7357 2.09505 23.931 2.02995 24.0938 1.96484C24.2891 1.89974 24.5169 1.88346 24.7773 1.91602C25.1029 1.94857 25.3796 1.9974 25.6074 2.0625C25.8353 2.09505 26.0306 2.19271 26.1934 2.35547C26.4538 2.38802 26.6654 2.48568 26.8281 2.64844C26.9909 2.77865 27.1536 2.92513 27.3164 3.08789H27.5117ZM43.9668 21.5938C43.9017 21.724 43.8854 21.8379 43.918 21.9355C43.9505 22.0007 43.9342 22.0983 43.8691 22.2285C43.804 22.3587 43.7227 22.4727 43.625 22.5703C43.5273 22.668 43.4297 22.7982 43.332 22.9609C43.1693 23.2214 43.0553 23.4492 42.9902 23.6445C42.9251 23.8398 42.7786 24.0189 42.5508 24.1816C42.1927 24.2467 41.8184 24.3281 41.4277 24.4258C41.0697 24.4909 40.7279 24.5397 40.4023 24.5723C40.1094 24.5723 39.7513 24.5885 39.3281 24.6211C38.9049 24.6536 38.5306 24.6374 38.2051 24.5723C37.8796 24.5397 37.668 24.5234 37.5703 24.5234C37.4727 24.5234 37.375 24.5234 37.2773 24.5234C36.8216 24.5234 36.3008 24.5885 35.7148 24.7188C35.1615 24.8164 34.6406 24.8652 34.1523 24.8652C33.7943 24.8327 33.4362 24.8001 33.0781 24.7676C32.7526 24.735 32.362 24.7513 31.9062 24.8164C31.5482 24.8815 31.3203 24.9141 31.2227 24.9141C31.125 24.8815 31.0273 24.8815 30.9297 24.9141C30.7669 24.9466 30.6042 24.9792 30.4414 25.0117C30.3112 25.0117 30.181 25.028 30.0508 25.0605C29.888 25.1257 29.6927 25.1908 29.4648 25.2559C29.2695 25.321 29.0742 25.3372 28.8789 25.3047C28.7812 25.3047 28.6836 25.2721 28.5859 25.207C28.5208 25.1419 28.4232 25.0768 28.293 25.0117C28.1302 24.9466 27.9674 24.8978 27.8047 24.8652C27.6745 24.8001 27.5768 24.7025 27.5117 24.5723C27.5768 24.3444 27.6257 24.084 27.6582 23.791C27.6908 23.498 27.8372 23.1888 28.0977 22.8633C28.1628 22.7982 28.2441 22.7168 28.3418 22.6191C28.4395 22.5215 28.5371 22.4076 28.6348 22.2773C28.765 22.1146 28.8464 22.0007 28.8789 21.9355C28.944 21.8379 29.0579 21.724 29.2207 21.5938C29.3835 21.5286 29.5299 21.4961 29.6602 21.4961C29.8229 21.4635 29.9857 21.3984 30.1484 21.3008C30.4089 21.3659 30.6693 21.3822 30.9297 21.3496C31.2227 21.3171 31.4342 21.3659 31.5645 21.4961C32.0527 21.4961 32.5085 21.5449 32.9316 21.6426C33.3874 21.7077 33.8757 21.724 34.3965 21.6914C34.722 21.6914 35.0312 21.6751 35.3242 21.6426C35.6497 21.5775 36.0078 21.5286 36.3984 21.4961H38.1074C38.3678 21.4961 38.6283 21.4798 38.8887 21.4473C39.1816 21.4147 39.4746 21.3984 39.7676 21.3984C40.0605 21.3659 40.3372 21.3822 40.5977 21.4473C40.8581 21.4798 41.1185 21.4961 41.3789 21.4961C41.6393 21.4635 41.9323 21.431 42.2578 21.3984C42.6159 21.3333 42.9414 21.3008 43.2344 21.3008C43.3971 21.3659 43.5436 21.4147 43.6738 21.4473C43.804 21.4473 43.9017 21.4961 43.9668 21.5938ZM48.752 35.2656C49.3053 35.1029 49.8262 34.8913 50.3145 34.6309C50.8353 34.3704 51.4049 34.1589 52.0234 33.9961C52.8372 33.8984 53.651 33.8496 54.4648 33.8496C55.3112 33.8496 56.0924 33.752 56.8086 33.5566C57.5898 33.4264 58.2897 33.3288 58.9082 33.2637C59.5592 33.1986 60.1615 33.3125 60.7148 33.6055C60.7799 33.8659 60.7799 34.1914 60.7148 34.582C60.6497 34.9401 60.5684 35.2493 60.4707 35.5098C60.373 35.8027 60.2917 36.0306 60.2266 36.1934C60.1615 36.3561 60.0475 36.5677 59.8848 36.8281C59.722 36.9583 59.543 37.056 59.3477 37.1211C59.1849 37.1862 59.0221 37.2676 58.8594 37.3652C58.5664 37.3001 58.2572 37.3327 57.9316 37.4629C57.834 37.3327 57.6224 37.3001 57.2969 37.3652C56.8411 37.3327 56.418 37.3978 56.0273 37.5605C55.6693 37.7233 55.2786 37.7721 54.8555 37.707C54.5951 37.7721 54.3021 37.821 53.9766 37.8535C53.6836 37.8535 53.3581 37.8861 53 37.9512C52.6419 38.0163 52.3164 38.1302 52.0234 38.293C51.7305 38.4557 51.4049 38.5046 51.0469 38.4395C50.6888 38.6022 50.3145 38.7487 49.9238 38.8789C49.5332 39.0417 49.1263 39.2044 48.7031 39.3672C48.3451 39.5625 48.1335 39.6602 48.0684 39.6602C48.0358 39.6602 47.987 39.6764 47.9219 39.709C47.5964 39.8717 47.3522 39.9694 47.1895 40.002C47.0592 40.0345 46.9128 40.0833 46.75 40.1484C46.4896 40.1484 46.2454 40.0996 46.0176 40.002C45.8223 39.9368 45.5944 39.8555 45.334 39.7578C45.1712 39.6602 45.0573 39.5462 44.9922 39.416C44.9271 39.3184 44.8294 39.1719 44.6992 38.9766C44.3086 38.5859 44.0319 38.179 43.8691 37.7559C43.804 37.6908 43.7227 37.6257 43.625 37.5605C43.5273 37.4954 43.4297 37.4303 43.332 37.3652C43.1693 36.8118 43.1855 36.3398 43.3809 35.9492C43.5436 35.526 43.7064 35.1029 43.8691 34.6797C44.0645 34.1914 44.2272 33.6868 44.3574 33.166C44.4876 32.6126 44.7155 32.1569 45.041 31.7988C45.1387 31.5059 45.3177 31.1641 45.5781 30.7734C45.7734 30.4479 45.9199 30.1061 46.0176 29.748C46.1478 29.39 46.3105 29.0482 46.5059 28.7227C46.6035 28.5599 46.7012 28.4134 46.7988 28.2832C46.929 28.1204 47.043 27.974 47.1406 27.8438C47.1732 27.681 47.222 27.5671 47.2871 27.502C47.3848 27.4368 47.4499 27.3229 47.4824 27.1602C47.8079 26.8672 48.0521 26.5091 48.2148 26.0859C48.4102 25.6628 48.6543 25.2884 48.9473 24.9629C49.2077 24.6048 49.403 24.2142 49.5332 23.791C49.696 23.3678 49.9076 22.9772 50.168 22.6191C50.2982 22.2936 50.3958 22.0495 50.4609 21.8867C50.5586 21.724 50.6562 21.5449 50.7539 21.3496C50.8841 21.0566 50.998 20.7148 51.0957 20.3242C51.2259 19.9336 51.3724 19.6081 51.5352 19.3477C51.6003 19.0547 51.6979 18.8105 51.8281 18.6152C51.9583 18.4199 52.056 18.1432 52.1211 17.7852C52.2839 17.5573 52.3978 17.2806 52.4629 16.9551C52.5605 16.6296 52.6745 16.3366 52.8047 16.0762C52.8047 15.946 52.8372 15.832 52.9023 15.7344C53 15.6042 53.0163 15.4902 52.9512 15.3926C53.1139 15.2298 53.1953 15.0345 53.1953 14.8066C53.2279 14.5788 53.3255 14.3835 53.4883 14.2207C53.4557 13.9928 53.5371 13.7487 53.7324 13.4883C53.765 13.3255 53.8138 13.1953 53.8789 13.0977C53.9766 12.9674 54.0417 12.8535 54.0742 12.7559C54.3672 12.2025 54.5462 11.8118 54.6113 11.584C54.709 11.3236 54.8066 11.0957 54.9043 10.9004C54.9694 10.8353 55.0345 10.7702 55.0996 10.7051C55.1647 10.6074 55.2135 10.4935 55.2461 10.3633C55.3112 10.2005 55.3763 10.0215 55.4414 9.82617C55.5065 9.63086 55.5716 9.45182 55.6367 9.28906C55.7018 9.1263 55.7507 8.97982 55.7832 8.84961C55.8158 8.7194 55.8646 8.60547 55.9297 8.50781C56.1576 8.18229 56.2552 8.00326 56.2227 7.9707C56.2227 7.93815 56.2389 7.9056 56.2715 7.87305C56.3366 7.71029 56.4017 7.5638 56.4668 7.43359C56.5319 7.30339 56.597 7.17318 56.6621 7.04297C57.0202 6.16406 57.3132 5.44792 57.541 4.89453C57.8014 4.34115 58.0944 3.78776 58.4199 3.23438C58.4199 2.97396 58.3874 2.71354 58.3223 2.45312C58.2572 2.16016 58.2897 1.89974 58.4199 1.67188C58.6803 1.54167 58.9245 1.39518 59.1523 1.23242C59.4128 1.03711 59.6895 0.906901 59.9824 0.841797C60.1126 0.809245 60.2266 0.874349 60.3242 1.03711C60.4544 1.16732 60.5684 1.26497 60.666 1.33008C60.959 1.59049 61.2194 1.91602 61.4473 2.30664C61.7077 2.66471 61.903 3.03906 62.0332 3.42969C62.0983 3.6901 62.1146 3.99935 62.082 4.35742C62.082 4.68294 62.0332 4.95964 61.9355 5.1875C61.8379 5.54557 61.7077 5.82227 61.5449 6.01758C61.61 6.44076 61.5938 6.79883 61.4961 7.0918C61.431 7.38477 61.3496 7.66146 61.252 7.92188C60.9264 8.2474 60.666 8.63802 60.4707 9.09375C60.2754 9.32161 60.1126 9.58203 59.9824 9.875C59.8522 10.1354 59.7057 10.3958 59.543 10.6562C59.4128 10.9167 59.2663 11.1771 59.1035 11.4375C58.9408 11.6979 58.8105 11.9909 58.7129 12.3164C58.4199 12.6745 58.2409 12.9512 58.1758 13.1465C58.1432 13.3092 58.0456 13.4557 57.8828 13.5859C57.4922 14.4323 57.1504 15.2298 56.8574 15.9785C56.5645 16.6947 56.2389 17.3945 55.8809 18.0781C55.9134 18.2409 55.8809 18.3711 55.7832 18.4688C55.6855 18.5339 55.653 18.6478 55.6855 18.8105C55.36 19.3965 55.1159 20.0638 54.9531 20.8125C54.8229 21.5612 54.5788 22.2285 54.2207 22.8145C53.9277 23.7585 53.5534 24.6211 53.0977 25.4023C52.6745 26.151 52.2839 26.9648 51.9258 27.8438C51.763 27.9089 51.6491 28.1042 51.584 28.4297C51.2259 28.9831 50.9329 29.6016 50.7051 30.2852C50.5098 30.9688 50.2493 31.6035 49.9238 32.1895C49.7611 32.6777 49.5495 33.1823 49.2891 33.7031C49.0286 34.224 48.8496 34.7448 48.752 35.2656ZM72.1406 24.084C71.9128 24.377 71.6849 24.6536 71.457 24.9141C71.2292 25.1745 70.9688 25.4186 70.6758 25.6465C70.4805 26.0046 70.2526 26.3301 69.9922 26.623C69.7318 26.916 69.4714 27.1927 69.2109 27.4531C69.0807 27.7135 68.9342 27.9251 68.7715 28.0879C68.6087 28.2181 68.4297 28.3646 68.2344 28.5273C68.1367 28.6901 68.0065 28.8529 67.8438 29.0156C67.7135 29.1784 67.5833 29.3411 67.4531 29.5039C67.3555 29.6667 67.2741 29.8457 67.209 30.041C67.1439 30.2363 67.1602 30.4479 67.2578 30.6758C67.6159 30.7409 67.974 30.6921 68.332 30.5293C68.6901 30.3665 68.9993 30.2201 69.2598 30.0898C69.5202 29.9271 69.7806 29.7969 70.041 29.6992C70.334 29.569 70.5944 29.4225 70.8223 29.2598L72.0918 27.9902C72.3197 27.7949 72.515 27.5833 72.6777 27.3555C72.8405 27.1276 73.0195 26.8835 73.2148 26.623C73.2799 26.2975 73.4102 25.972 73.6055 25.6465C73.8008 25.2884 73.8822 24.9466 73.8496 24.6211C73.8171 24.4258 73.752 24.263 73.6543 24.1328C73.5892 23.9701 73.5404 23.8073 73.5078 23.6445C73.1823 23.6445 72.9219 23.7096 72.7266 23.8398C72.5638 23.9375 72.3685 24.0189 72.1406 24.084ZM64.2793 27.209C64.3444 27.1764 64.4746 27.0462 64.6699 26.8184C64.8978 26.5579 65.1419 26.2812 65.4023 25.9883C65.6628 25.6628 65.9069 25.3861 66.1348 25.1582C66.3626 24.8978 66.5254 24.7513 66.623 24.7188C66.7207 24.556 66.8021 24.4258 66.8672 24.3281C66.9648 24.1979 67.0951 24.084 67.2578 23.9863C67.5182 23.498 67.86 23.1074 68.2832 22.8145C68.7064 22.4889 69.1133 22.1146 69.5039 21.6914C70.1224 21.431 70.7409 21.1055 71.3594 20.7148C72.0104 20.2917 72.7266 20.0638 73.5078 20.0312C73.8659 20.194 74.2077 20.2428 74.5332 20.1777C74.8913 20.1126 75.2168 20.194 75.5098 20.4219C75.6725 20.7148 75.819 20.9102 75.9492 21.0078C76.0794 21.0729 76.1771 21.1543 76.2422 21.252C76.3724 21.6751 76.4701 21.9518 76.5352 22.082C76.6003 22.1797 76.6491 22.3099 76.6816 22.4727C76.7142 22.9609 76.7467 23.319 76.7793 23.5469C76.8118 23.7422 76.8118 23.9375 76.7793 24.1328C76.6816 25.0117 76.5189 25.8418 76.291 26.623C76.2259 26.8184 76.1608 27.0299 76.0957 27.2578C76.0306 27.4531 75.9492 27.6322 75.8516 27.7949C75.6237 28.0879 75.4447 28.3483 75.3145 28.5762C75.2168 28.7715 75.1191 28.9342 75.0215 29.0645C74.6309 29.4551 74.2891 29.7806 73.9961 30.041C73.7031 30.2038 73.4102 30.3828 73.1172 30.5781C72.8242 30.7734 72.4987 30.9036 72.1406 30.9688C71.9779 31.0664 71.8314 31.1641 71.7012 31.2617C71.571 31.3268 71.4082 31.3757 71.2129 31.4082C70.8874 31.6361 70.5618 31.8151 70.2363 31.9453C69.9108 32.043 69.569 32.1732 69.2109 32.3359C69.0156 32.401 68.804 32.515 68.5762 32.6777C68.3483 32.8405 68.1204 32.9707 67.8926 33.0684C67.6973 33.1335 67.4531 33.1986 67.1602 33.2637C66.8997 33.2962 66.6882 33.3451 66.5254 33.4102C66.6882 33.7682 66.7533 34.1751 66.7207 34.6309C66.6882 35.0866 66.7695 35.4935 66.9648 35.8516C67.388 35.9492 67.8438 36.0306 68.332 36.0957C68.8529 36.1283 69.3411 36.112 69.7969 36.0469C69.9596 36.0143 70.1387 35.9655 70.334 35.9004C70.5293 35.8027 70.7246 35.7376 70.9199 35.7051C71.278 35.64 71.6198 35.5586 71.9453 35.4609C72.3034 35.3633 72.6126 35.2331 72.873 35.0703C73.8171 34.7448 74.7285 34.3053 75.6074 33.752C76.4863 33.1986 77.2513 32.5964 77.9023 31.9453C78.293 31.6849 78.7161 31.3268 79.1719 30.8711C79.6602 30.4154 80.0345 29.9922 80.2949 29.6016C80.7832 29.0807 81.2064 28.6738 81.5645 28.3809C81.9551 28.0879 82.3132 27.9577 82.6387 27.9902C82.8991 27.9902 83.1432 28.153 83.3711 28.4785C83.6315 28.7715 83.6152 29.097 83.3223 29.4551C82.9967 29.6504 82.6549 29.9434 82.2969 30.334C81.9388 30.7246 81.5645 31.0013 81.1738 31.1641C80.8809 31.3594 80.5065 31.7174 80.0508 32.2383C79.6276 32.7591 79.2695 33.1497 78.9766 33.4102C78.8464 33.5404 78.6673 33.7031 78.4395 33.8984C78.2441 34.0612 78.0814 34.224 77.9512 34.3867C77.4954 34.7773 77.0072 35.1354 76.4863 35.4609C76.291 35.3958 76.1445 35.4284 76.0469 35.5586C75.9492 35.6888 75.819 35.819 75.6562 35.9492C75.5586 36.0143 75.4447 36.0794 75.3145 36.1445C75.2168 36.2096 75.1191 36.2747 75.0215 36.3398C74.7611 36.5677 74.4681 36.7956 74.1426 37.0234C73.8496 37.2513 73.5404 37.4466 73.2148 37.6094C72.5638 38 71.9128 38.3255 71.2617 38.5859C70.6107 38.8789 69.9759 39.237 69.3574 39.6602C69.1621 39.6927 68.9831 39.709 68.8203 39.709C68.6576 39.7415 68.4948 39.7741 68.332 39.8066C68.1367 39.8717 67.9577 39.9043 67.7949 39.9043C67.6647 39.9043 67.4694 39.8717 67.209 39.8066C66.623 39.6439 66.1348 39.4486 65.7441 39.2207C65.3535 38.9928 64.9629 38.6673 64.5723 38.2441C64.377 38.0488 64.1654 37.8698 63.9375 37.707C63.7096 37.5443 63.5306 37.3652 63.4004 37.1699C63.3027 37.0072 63.1888 36.7467 63.0586 36.3887C62.9284 36.0306 62.8145 35.6562 62.7168 35.2656C62.6191 34.8424 62.5378 34.4355 62.4727 34.0449C62.4076 33.6543 62.375 33.3613 62.375 33.166C62.4401 33.0358 62.5215 32.8079 62.6191 32.4824C62.6842 32.1569 62.7656 31.8151 62.8633 31.457C62.9284 31.0664 62.9935 30.7083 63.0586 30.3828C63.0911 30.0573 63.1074 29.8294 63.1074 29.6992C63.14 29.6667 63.2214 29.5365 63.3516 29.3086C63.4818 29.0482 63.6283 28.7715 63.791 28.4785C63.9212 28.1855 64.0352 27.9251 64.1328 27.6973C64.2305 27.4368 64.2793 27.2741 64.2793 27.209ZM95.3828 24.8164C95.4154 24.9141 95.3828 25.1094 95.2852 25.4023C95.1224 25.5977 95.0247 25.8092 94.9922 26.0371C94.9271 26.1673 94.862 26.2812 94.7969 26.3789C94.7643 26.4766 94.7318 26.6068 94.6992 26.7695C94.6341 26.9648 94.6016 27.1927 94.6016 27.4531C94.6341 27.7135 94.6341 27.9577 94.6016 28.1855C94.5365 28.5436 94.4876 28.9017 94.4551 29.2598C94.4225 29.5853 94.39 29.9271 94.3574 30.2852C94.3574 30.6432 94.3249 31.0501 94.2598 31.5059C94.1947 31.9616 94.1296 32.3685 94.0645 32.7266C94.1947 32.9544 94.276 33.1986 94.3086 33.459C94.3411 33.7194 94.4551 33.931 94.6504 34.0938C95.3014 33.9961 95.8223 33.8496 96.2129 33.6543C96.6035 33.4264 96.9779 33.1172 97.3359 32.7266C97.6289 32.5964 97.8242 32.4824 97.9219 32.3848C98.0521 32.2871 98.2474 32.1569 98.5078 31.9941C98.5729 31.929 98.638 31.8639 98.7031 31.7988C98.7682 31.7337 98.8333 31.6686 98.8984 31.6035C99.2565 31.4082 99.4681 31.278 99.5332 31.2129C99.6309 31.1478 99.7448 31.0827 99.875 31.0176C100.428 30.6595 100.852 30.2852 101.145 29.8945C101.438 29.6667 101.633 29.4714 101.73 29.3086C101.861 29.1133 102.121 28.9342 102.512 28.7715C102.74 28.5111 102.967 28.2995 103.195 28.1367C103.456 27.9414 103.7 27.7135 103.928 27.4531C104.09 27.4531 104.221 27.4857 104.318 27.5508C104.416 27.6159 104.53 27.681 104.66 27.7461C104.758 28.0065 104.774 28.2832 104.709 28.5762C104.644 28.8366 104.53 29.0807 104.367 29.3086C104.204 29.5365 104.123 29.6667 104.123 29.6992C104.123 29.7318 104.107 29.7643 104.074 29.7969C103.977 29.9271 103.846 30.0573 103.684 30.1875C103.553 30.2852 103.439 30.3991 103.342 30.5293C103.179 30.8223 103.049 30.9688 102.951 30.9688C102.854 30.9688 102.772 31.0013 102.707 31.0664C102.414 31.2292 102.202 31.3594 102.072 31.457C101.975 31.5547 101.796 31.6849 101.535 31.8477C101.177 32.043 100.965 32.1732 100.9 32.2383C100.835 32.3034 100.77 32.3522 100.705 32.3848C100.282 32.8405 99.8913 33.2148 99.5332 33.5078C99.2077 33.7682 98.8496 34.1263 98.459 34.582C98.3288 34.6797 98.1986 34.7773 98.0684 34.875C97.9382 34.9727 97.8242 35.1029 97.7266 35.2656C97.4336 35.4609 97.1895 35.6562 96.9941 35.8516C96.8314 36.0469 96.6361 36.2747 96.4082 36.5352C96.2129 36.6328 96.0013 36.7793 95.7734 36.9746C95.5456 37.1374 95.3014 37.2839 95.041 37.4141C94.9108 37.4792 94.7643 37.5605 94.6016 37.6582C94.4714 37.7233 94.3249 37.7559 94.1621 37.7559C93.7715 37.821 93.4134 37.7884 93.0879 37.6582C92.7624 37.528 92.4531 37.4303 92.1602 37.3652C92.0299 37.1699 91.8672 37.0072 91.6719 36.877C91.3789 36.5189 91.1673 36.0957 91.0371 35.6074C90.9069 35.1191 90.7767 34.5983 90.6465 34.0449C90.3861 34.2077 90.1419 34.4193 89.9141 34.6797C89.6862 34.9401 89.3932 35.1517 89.0352 35.3145C88.3841 35.9329 87.6842 36.5352 86.9355 37.1211C86.2194 37.6745 85.487 38.2604 84.7383 38.8789C84.6406 38.9766 84.543 39.0579 84.4453 39.123C84.3477 39.1882 84.2663 39.2044 84.2012 39.1719C84.0384 39.3672 83.8105 39.4811 83.5176 39.5137C83.2572 39.5788 82.9642 39.5788 82.6387 39.5137C82.3132 39.3509 82.0202 39.237 81.7598 39.1719C81.4993 39.1068 81.2389 39.0091 80.9785 38.8789C80.4251 38.7812 79.9694 38.5371 79.6113 38.1465C79.2207 37.7559 78.8952 37.3001 78.6348 36.7793C78.5371 36.5189 78.472 36.2747 78.4395 36.0469C78.3743 35.819 78.3092 35.5586 78.2441 35.2656C78.2116 35.0052 78.1628 34.7936 78.0977 34.6309C78.0326 34.4355 78.0326 34.2565 78.0977 34.0938C78.0326 33.9961 78.0163 33.8984 78.0488 33.8008C78.0814 33.6706 78.0977 33.5404 78.0977 33.4102C78.0651 32.9544 78.1139 32.4661 78.2441 31.9453C78.3418 31.4245 78.4883 30.9525 78.6836 30.5293C78.7487 30.3991 78.8789 30.2363 79.0742 30.041C79.1393 29.9434 79.1882 29.8457 79.2207 29.748C79.2533 29.6504 79.3021 29.569 79.3672 29.5039C79.4323 29.4062 79.5299 29.3086 79.6602 29.2109C79.7904 29.1133 79.9043 29.0156 80.002 28.918C80.1647 28.6901 80.3438 28.4948 80.5391 28.332C80.7669 28.1367 80.9785 27.9414 81.1738 27.7461C81.2715 27.6484 81.3529 27.5345 81.418 27.4043C81.5156 27.2741 81.6458 27.1764 81.8086 27.1113C81.9388 26.8835 82.0853 26.7044 82.248 26.5742C82.4108 26.4115 82.5898 26.2487 82.7852 26.0859C83.3385 25.4023 84.0221 24.8327 84.8359 24.377C85.6497 23.9212 86.3822 23.4004 87.0332 22.8145C87.2611 22.7168 87.4564 22.6029 87.6191 22.4727C87.7819 22.3424 87.9447 22.2122 88.1074 22.082C88.5306 21.724 88.9701 21.61 89.4258 21.7402C89.8815 21.8704 90.3047 21.9844 90.6953 22.082C91.0208 22.375 91.3301 22.668 91.623 22.9609C91.9486 23.2539 92.2253 23.5794 92.4531 23.9375C92.681 23.9049 92.9414 23.9049 93.2344 23.9375C93.5273 23.9375 93.8366 23.9049 94.1621 23.8398C94.2598 23.8398 94.3574 23.8236 94.4551 23.791C94.5527 23.7259 94.6341 23.6934 94.6992 23.6934C95.1875 23.8561 95.4316 24.1003 95.4316 24.4258L95.3828 24.8164ZM88.9863 25.1582C88.1074 25.5814 87.3099 26.0859 86.5938 26.6719C85.8776 27.2253 85.194 27.8275 84.543 28.4785C84.3802 28.6413 84.2012 28.804 84.0059 28.9668C83.8431 29.097 83.6966 29.2435 83.5664 29.4062C83.4362 29.569 83.306 29.7643 83.1758 29.9922C83.0781 30.2201 82.9805 30.4316 82.8828 30.627C82.8177 30.7572 82.7526 30.8711 82.6875 30.9688C82.6224 31.0339 82.5573 31.1152 82.4922 31.2129C82.4271 31.3757 82.3945 31.5384 82.3945 31.7012C82.4271 31.8639 82.4434 32.043 82.4434 32.2383C82.4434 32.401 82.4434 32.5638 82.4434 32.7266C82.4434 32.8893 82.4596 33.0521 82.4922 33.2148C82.5898 33.5729 82.6387 33.931 82.6387 34.2891C82.6387 34.5495 82.6549 34.875 82.6875 35.2656C82.7526 35.6237 82.8828 35.8678 83.0781 35.998C83.2734 36.1283 83.4688 36.1608 83.6641 36.0957C83.8919 36.0306 84.0872 35.9818 84.25 35.9492C85.3893 35.0703 86.4635 34.1589 87.4727 33.2148C88.4818 32.2383 89.377 31.1478 90.1582 29.9434C90.0931 29.097 90.0768 28.2832 90.1094 27.502C90.1745 26.6882 90.1094 25.9395 89.9141 25.2559C89.7839 25.1908 89.6211 25.1745 89.4258 25.207C89.263 25.207 89.1165 25.1908 88.9863 25.1582ZM114.963 34.1426C115.093 33.9798 115.191 33.8659 115.256 33.8008C115.321 33.7031 115.419 33.6217 115.549 33.5566C115.777 33.0684 116.021 32.6777 116.281 32.3848C116.574 32.0592 116.867 31.7663 117.16 31.5059C117.453 31.2129 117.762 30.9525 118.088 30.7246C118.446 30.4642 118.837 30.1549 119.26 29.7969C119.423 29.7969 119.553 29.748 119.65 29.6504C119.781 29.5202 119.927 29.4225 120.09 29.3574C120.318 29.1621 120.497 29.0156 120.627 28.918C120.79 28.8203 120.92 28.6901 121.018 28.5273C121.408 28.332 121.75 28.0879 122.043 27.7949C122.368 27.502 122.71 27.2253 123.068 26.9648C123.361 26.8997 123.638 26.9323 123.898 27.0625C124.029 27.3229 124.077 27.5996 124.045 27.8926C124.012 28.1855 123.85 28.3483 123.557 28.3809C123.459 28.4785 123.345 28.5762 123.215 28.6738C123.117 28.7715 122.987 28.8366 122.824 28.8691C122.629 28.9017 122.482 28.9505 122.385 29.0156C122.32 29.0482 122.255 29.1296 122.189 29.2598C122.157 29.5853 122.108 29.7806 122.043 29.8457C122.01 29.8783 121.978 29.9271 121.945 29.9922C121.75 30.3177 121.538 30.6107 121.311 30.8711C121.115 31.099 120.92 31.3268 120.725 31.5547C120.529 31.75 120.334 31.9779 120.139 32.2383C119.943 32.4661 119.732 32.7591 119.504 33.1172C119.309 33.2474 119.162 33.4264 119.064 33.6543C118.479 33.9798 118.039 34.2402 117.746 34.4355C117.486 34.5983 117.242 34.8099 117.014 35.0703C116.818 35.2005 116.721 35.2982 116.721 35.3633C116.721 35.4284 116.688 35.4935 116.623 35.5586C116.298 35.819 116.102 36.0306 116.037 36.1934C116.005 36.3236 115.939 36.4212 115.842 36.4863C115.516 36.7142 115.272 36.9258 115.109 37.1211C114.947 37.2839 114.735 37.4141 114.475 37.5117C114.279 37.6745 114.003 37.8698 113.645 38.0977C113.286 38.3255 112.896 38.5371 112.473 38.7324C112.049 38.9277 111.626 39.0579 111.203 39.123C110.812 39.2207 110.471 39.2044 110.178 39.0742C110.048 38.9766 109.934 38.8789 109.836 38.7812C109.738 38.7161 109.624 38.651 109.494 38.5859C109.266 38.3255 109.022 38.1139 108.762 37.9512C108.534 37.7559 108.322 37.5117 108.127 37.2188C107.899 36.8932 107.736 36.5514 107.639 36.1934C107.574 35.8027 107.46 35.4284 107.297 35.0703C107.264 34.6797 107.264 34.3053 107.297 33.9473C107.329 33.5566 107.395 33.2311 107.492 32.9707C107.85 31.8639 108.273 30.9036 108.762 30.0898C109.283 29.276 109.641 28.3483 109.836 27.3066C109.478 26.9486 109.266 26.623 109.201 26.3301C109.169 26.0046 109.087 25.5651 108.957 25.0117C108.111 25.5651 107.329 26.265 106.613 27.1113C105.897 27.9577 105.262 28.8203 104.709 29.6992C104.481 30.0898 104.286 30.4479 104.123 30.7734C103.96 31.099 103.765 31.3919 103.537 31.6523C103.374 31.8151 103.293 31.929 103.293 31.9941C103.293 32.0267 103.26 32.0755 103.195 32.1406C102.935 32.4661 102.772 32.694 102.707 32.8242C102.642 32.9544 102.577 33.0684 102.512 33.166C102.447 33.2637 102.365 33.3613 102.268 33.459C102.17 33.5566 102.089 33.6543 102.023 33.752C101.568 34.403 101.145 35.0215 100.754 35.6074C100.396 36.1608 100.021 36.7305 99.6309 37.3164C99.4681 37.5768 99.3216 37.8535 99.1914 38.1465C99.0612 38.4395 98.8984 38.6999 98.7031 38.9277C98.3776 38.9603 98.1986 38.9115 98.166 38.7812C98.1009 38.651 98.1009 38.5371 98.166 38.4395C97.9707 38.3092 97.8242 38.1139 97.7266 37.8535C97.5964 37.5605 97.5312 37.2513 97.5312 36.9258C97.4987 36.6003 97.4987 36.2747 97.5312 35.9492C97.5638 35.6237 97.6289 35.347 97.7266 35.1191C97.6289 34.8262 97.5964 34.6634 97.6289 34.6309C97.6615 34.5983 97.6777 34.5495 97.6777 34.4844C98.1009 33.8984 98.5404 33.3125 98.9961 32.7266C99.4193 32.1406 99.875 31.5872 100.363 31.0664C100.526 30.8385 100.673 30.6107 100.803 30.3828C100.965 30.1549 101.145 29.9434 101.34 29.748C101.633 29.2272 101.958 28.7389 102.316 28.2832C102.707 27.8275 103.033 27.3229 103.293 26.7695C103.456 26.6068 103.57 26.4277 103.635 26.2324C103.732 26.0371 103.879 25.8743 104.074 25.7441C104.302 25.3535 104.481 24.9792 104.611 24.6211C104.742 24.263 104.921 23.9538 105.148 23.6934C105.214 23.4655 105.295 23.2865 105.393 23.1562C105.49 23.026 105.62 22.8796 105.783 22.7168C105.816 22.554 105.897 22.4238 106.027 22.3262C106.19 22.196 106.32 22.0495 106.418 21.8867C106.483 21.6589 106.564 21.5124 106.662 21.4473C106.76 21.3822 106.809 21.2682 106.809 21.1055C106.971 20.9427 107.134 20.7799 107.297 20.6172C107.46 20.4219 107.606 20.194 107.736 19.9336C108.192 19.6732 108.501 19.543 108.664 19.543C108.859 19.543 109.006 19.4616 109.104 19.2988C109.364 19.2988 109.673 19.2988 110.031 19.2988C110.389 19.2663 110.585 19.3802 110.617 19.6406C110.65 19.7057 110.65 19.7871 110.617 19.8848C110.585 19.9824 110.552 20.0801 110.52 20.1777C110.552 20.4707 110.552 20.6335 110.52 20.666C110.487 20.666 110.471 20.6823 110.471 20.7148C110.438 20.8125 110.422 20.9264 110.422 21.0566C110.454 21.1868 110.471 21.3333 110.471 21.4961C110.438 21.7565 110.406 21.9681 110.373 22.1309C110.34 22.2611 110.406 22.4401 110.568 22.668C110.633 22.7656 110.731 22.8633 110.861 22.9609C110.992 23.026 111.105 23.1237 111.203 23.2539C111.301 23.3516 111.35 23.4492 111.35 23.5469C111.382 23.6445 111.447 23.7422 111.545 23.8398C111.61 23.9375 111.708 24.0189 111.838 24.084C111.968 24.1491 112.066 24.263 112.131 24.4258C112.294 24.556 112.342 24.6374 112.277 24.6699C112.245 24.7025 112.326 24.7676 112.521 24.8652C112.912 25.3535 113.189 25.8581 113.352 26.3789C113.547 26.7695 113.726 27.0951 113.889 27.3555C114.051 27.6159 114.051 27.8763 113.889 28.1367C113.824 28.2018 113.758 28.2832 113.693 28.3809C113.661 28.4785 113.612 28.5924 113.547 28.7227C113.417 28.8529 113.286 29.0156 113.156 29.2109C113.091 29.3411 113.042 29.4714 113.01 29.6016C112.977 29.6992 112.928 29.7969 112.863 29.8945C112.57 30.3503 112.261 30.7734 111.936 31.1641C111.643 31.5547 111.382 31.9616 111.154 32.3848C111.187 33.3288 111.366 34.0124 111.691 34.4355C112.082 34.8913 112.326 35.1191 112.424 35.1191C112.619 35.1517 112.847 35.0866 113.107 34.9238C113.368 34.7611 113.579 34.6309 113.742 34.5332C113.872 34.4681 113.986 34.403 114.084 34.3379C114.182 34.2728 114.296 34.224 114.426 34.1914C114.784 34.0612 114.947 34.0286 114.914 34.0938C114.882 34.1263 114.898 34.1426 114.963 34.1426ZM123.703 31.9941C123.964 31.8314 124.175 31.6198 124.338 31.3594C124.501 31.099 124.696 30.8385 124.924 30.5781C125.347 30.0898 125.803 29.6829 126.291 29.3574C126.519 29.0319 126.796 28.7878 127.121 28.625C127.479 28.4297 127.756 28.153 127.951 27.7949C128.016 27.6973 128.065 27.5996 128.098 27.502C128.163 27.4043 128.228 27.3066 128.293 27.209C128.879 26.3952 129.546 25.679 130.295 25.0605C130.49 24.8978 130.669 24.735 130.832 24.5723C131.027 24.4095 131.255 24.2467 131.516 24.084C131.809 23.9212 132.085 23.7096 132.346 23.4492C132.639 23.1888 132.948 22.9935 133.273 22.8633C133.501 22.7656 133.713 22.7005 133.908 22.668C134.104 22.6029 134.315 22.5378 134.543 22.4727C134.771 22.4076 134.966 22.3587 135.129 22.3262C135.324 22.2611 135.536 22.2611 135.764 22.3262C136.285 22.554 136.675 22.9935 136.936 23.6445C137.001 23.8073 136.968 24.1654 136.838 24.7188C136.74 25.2396 136.594 25.8255 136.398 26.4766C136.236 27.0951 136.057 27.6973 135.861 28.2832C135.666 28.8691 135.536 29.2923 135.471 29.5527C135.406 29.8132 135.389 29.9596 135.422 29.9922C135.454 29.9922 135.471 30.0247 135.471 30.0898C135.406 30.2526 135.357 30.3991 135.324 30.5293C135.292 30.6595 135.259 30.806 135.227 30.9688C135.161 31.2292 135.113 31.5872 135.08 32.043C135.048 32.4661 135.064 32.8079 135.129 33.0684C135.487 33.0358 135.666 33.0033 135.666 32.9707C135.699 32.9382 135.747 32.9219 135.812 32.9219C135.91 32.8893 136.008 32.8893 136.105 32.9219C136.236 32.9219 136.35 32.9056 136.447 32.873C136.805 32.7754 137.131 32.6452 137.424 32.4824C137.717 32.2871 137.993 32.0592 138.254 31.7988C138.84 31.5384 139.377 31.278 139.865 31.0176C140.321 30.6921 140.679 30.4642 140.939 30.334C141.232 30.1712 141.656 29.9596 142.209 29.6992C142.404 29.4714 142.681 29.276 143.039 29.1133C143.43 28.918 143.755 28.7064 144.016 28.4785C144.081 28.4134 144.162 28.332 144.26 28.2344C144.357 28.1042 144.455 28.0716 144.553 28.1367C144.715 28.2995 144.813 28.4785 144.846 28.6738C144.911 28.8366 144.927 28.9505 144.895 29.0156C144.634 29.276 144.488 29.4714 144.455 29.6016C144.455 29.7318 144.423 29.8294 144.357 29.8945C144.195 30.0573 143.951 30.2038 143.625 30.334C143.332 30.4642 143.153 30.5781 143.088 30.6758C143.055 30.7409 143.007 30.806 142.941 30.8711C142.876 30.9362 142.779 31.0176 142.648 31.1152C142.551 31.1803 142.469 31.2454 142.404 31.3105C142.339 31.4082 142.242 31.4733 142.111 31.5059C142.014 31.5059 141.916 31.5221 141.818 31.5547C141.623 31.7174 141.46 31.8639 141.33 31.9941C141.2 32.1243 141.053 32.2708 140.891 32.4336C140.63 32.694 140.467 32.8893 140.402 33.0195C140.337 33.1172 140.158 33.2637 139.865 33.459C139.702 33.5566 139.54 33.6543 139.377 33.752C139.214 33.8496 139.051 33.9473 138.889 34.0449C138.433 34.2728 137.977 34.5495 137.521 34.875C137.066 35.2005 136.61 35.526 136.154 35.8516C135.829 36.0469 135.487 36.2259 135.129 36.3887C134.803 36.5189 134.494 36.6816 134.201 36.877C134.071 36.877 133.973 36.877 133.908 36.877C133.876 36.8444 133.794 36.8607 133.664 36.9258C133.501 36.8281 133.339 36.8281 133.176 36.9258C133.013 36.9909 132.85 36.9909 132.688 36.9258C132.362 36.6654 132.134 36.5026 132.004 36.4375C131.906 36.3724 131.825 36.291 131.76 36.1934C131.695 36.0306 131.662 35.8516 131.662 35.6562C131.695 35.4609 131.662 35.2982 131.564 35.168C131.564 34.4518 131.581 33.7682 131.613 33.1172C131.678 32.4661 131.792 31.7826 131.955 31.0664C131.988 30.8385 132.053 30.5293 132.15 30.1387C132.248 29.7155 132.329 29.3086 132.395 28.918C132.46 28.5273 132.508 28.1855 132.541 27.8926C132.574 27.5996 132.541 27.4206 132.443 27.3555C132.085 27.5508 131.711 27.8438 131.32 28.2344C130.962 28.625 130.62 28.9505 130.295 29.2109C130.035 29.4062 129.774 29.5853 129.514 29.748C129.286 29.9108 129.042 30.0898 128.781 30.2852C128.553 30.4479 128.358 30.6107 128.195 30.7734C128.033 30.9362 127.854 31.1315 127.658 31.3594C127.43 31.5872 127.219 31.8151 127.023 32.043C126.828 32.2383 126.6 32.4336 126.34 32.6289C126.21 32.7591 126.079 32.873 125.949 32.9707C125.852 33.0358 125.754 33.1172 125.656 33.2148C125.493 33.3776 125.331 33.5404 125.168 33.7031C125.038 33.8333 124.859 33.9473 124.631 34.0449C124.436 34.3053 124.175 34.5983 123.85 34.9238C123.557 35.2493 123.247 35.6074 122.922 35.998C122.629 36.3561 122.336 36.7142 122.043 37.0723C121.75 37.4303 121.522 37.7559 121.359 38.0488C120.969 38.3743 120.546 38.651 120.09 38.8789C119.667 39.1393 119.146 39.1719 118.527 38.9766C118.202 38.7812 117.99 38.6185 117.893 38.4883C117.795 38.3581 117.681 38.2604 117.551 38.1953C117.583 37.8372 117.616 37.4954 117.648 37.1699C117.681 36.8444 117.779 36.5026 117.941 36.1445C117.974 36.0794 118.023 36.0143 118.088 35.9492C118.12 35.8516 118.169 35.7539 118.234 35.6562C118.397 35.3633 118.511 35.0378 118.576 34.6797C118.609 34.3216 118.706 33.9798 118.869 33.6543C119.064 33.3288 119.195 33.0684 119.26 32.873C119.292 32.6452 119.357 32.4499 119.455 32.2871C119.52 32.1243 119.618 31.9779 119.748 31.8477C119.846 31.6849 119.927 31.5221 119.992 31.3594C120.057 31.1966 120.171 31.0176 120.334 30.8223C120.497 30.5944 120.611 30.3991 120.676 30.2363C120.773 29.8783 120.887 29.5202 121.018 29.1621C121.148 28.804 121.294 28.446 121.457 28.0879C121.522 27.86 121.587 27.6484 121.652 27.4531C121.717 27.2253 121.799 27.0137 121.896 26.8184C122.059 26.4603 122.222 26.1185 122.385 25.793C122.548 25.4349 122.71 25.0768 122.873 24.7188C122.971 24.5234 123.052 24.3607 123.117 24.2305C123.215 24.0677 123.329 23.9049 123.459 23.7422C123.557 23.5794 123.638 23.4167 123.703 23.2539C123.801 23.0911 123.898 22.9284 123.996 22.7656C124.094 22.6029 124.175 22.4238 124.24 22.2285C124.338 22.0007 124.468 21.7891 124.631 21.5938C124.859 21.3333 125.038 21.0892 125.168 20.8613C125.298 20.6335 125.51 20.487 125.803 20.4219C125.933 20.487 126.063 20.487 126.193 20.4219C126.356 20.3568 126.503 20.3079 126.633 20.2754C126.796 20.2103 126.942 20.1777 127.072 20.1777C127.202 20.1452 127.316 20.194 127.414 20.3242C127.837 20.5846 128.146 20.8125 128.342 21.0078C128.537 21.2031 128.667 21.3822 128.732 21.5449C128.895 21.8379 128.911 22.1471 128.781 22.4727C128.651 22.7656 128.423 23.026 128.098 23.2539C127.967 23.8073 127.74 24.3281 127.414 24.8164C127.089 25.3047 126.796 25.7767 126.535 26.2324C126.47 26.3952 126.405 26.5579 126.34 26.7207C126.275 26.8835 126.21 27.0462 126.145 27.209C125.949 27.6647 125.738 28.1204 125.51 28.5762C125.314 29.0319 125.087 29.4714 124.826 29.8945C124.696 30.1549 124.582 30.3665 124.484 30.5293C124.387 30.6921 124.289 30.8385 124.191 30.9688C124.094 31.0664 124.012 31.1966 123.947 31.3594C123.882 31.5221 123.801 31.7337 123.703 31.9941ZM152.414 13.6836C152.479 13.7812 152.512 13.8789 152.512 13.9766C152.512 14.0742 152.561 14.1556 152.658 14.2207C152.593 14.5137 152.528 14.8229 152.463 15.1484C152.43 15.4414 152.414 15.7344 152.414 16.0273C152.414 16.1576 152.447 16.2715 152.512 16.3691C152.609 16.4668 152.658 16.5645 152.658 16.6621C152.495 17.0527 152.365 17.2806 152.268 17.3457C152.202 17.4108 152.17 17.4922 152.17 17.5898C152.007 17.6549 151.877 17.7526 151.779 17.8828C151.714 18.013 151.584 18.0781 151.389 18.0781C151.324 18.1758 151.242 18.2572 151.145 18.3223C151.079 18.3548 151.031 18.4362 150.998 18.5664C150.477 18.7943 149.891 18.778 149.24 18.5176C149.077 18.2246 148.85 18.013 148.557 17.8828C148.133 17.2643 148.117 16.5319 148.508 15.6855C148.573 15.5228 148.638 15.36 148.703 15.1973C148.801 15.002 148.882 14.8717 148.947 14.8066C149.305 14.5462 149.566 14.3835 149.729 14.3184C149.859 14.2533 149.989 14.1719 150.119 14.0742C150.282 13.9766 150.461 13.8952 150.656 13.8301C150.721 13.7975 150.803 13.7812 150.9 13.7812C151.031 13.7812 151.161 13.7487 151.291 13.6836C151.421 13.651 151.535 13.6185 151.633 13.5859C151.73 13.5534 151.828 13.5371 151.926 13.5371L152.414 13.6836ZM144.846 35.2656C145.139 35.1354 145.497 35.0866 145.92 35.1191C146.343 35.1517 146.685 35.0866 146.945 34.9238C147.076 34.8262 147.189 34.7285 147.287 34.6309C147.385 34.5332 147.499 34.5007 147.629 34.5332C148.15 34.3379 148.589 34.1426 148.947 33.9473C149.305 33.752 149.696 33.6055 150.119 33.5078C150.217 33.4753 150.331 33.4102 150.461 33.3125C150.624 33.2148 150.738 33.1335 150.803 33.0684C151.324 32.9056 151.698 32.7428 151.926 32.5801C152.154 32.4173 152.365 32.2546 152.561 32.0918C152.788 31.929 153 31.7663 153.195 31.6035C153.423 31.4082 153.7 31.1803 154.025 30.9199C154.481 30.6595 154.855 30.4316 155.148 30.2363C155.474 30.041 155.816 29.7969 156.174 29.5039C156.239 29.3411 156.32 29.2272 156.418 29.1621C156.548 29.0645 156.646 28.9505 156.711 28.8203C157.297 28.8203 157.622 29.0482 157.688 29.5039C157.525 29.862 157.297 30.1549 157.004 30.3828C156.743 30.6107 156.499 30.8711 156.271 31.1641C156.011 31.3268 155.799 31.4733 155.637 31.6035C155.474 31.7337 155.311 31.929 155.148 32.1895C155.116 32.1895 155.018 32.2708 154.855 32.4336C154.693 32.5638 154.595 32.6289 154.562 32.6289C154.367 32.8568 154.221 33.0033 154.123 33.0684C154.058 33.1335 153.993 33.1823 153.928 33.2148C153.895 33.2148 153.83 33.2474 153.732 33.3125C153.667 33.3776 153.521 33.5078 153.293 33.7031C153.065 34.0612 152.772 34.3542 152.414 34.582C151.73 35.2331 150.982 35.8027 150.168 36.291C149.387 36.7467 148.671 37.2025 148.02 37.6582C147.889 37.7233 147.775 37.821 147.678 37.9512C147.58 38.0488 147.466 38.1465 147.336 38.2441C147.173 38.3743 146.913 38.5046 146.555 38.6348C146.229 38.765 145.936 38.8789 145.676 38.9766C145.48 39.1068 145.301 39.2044 145.139 39.2695C144.423 39.3021 143.869 39.1882 143.479 38.9277C143.055 38.6999 142.73 38.5208 142.502 38.3906C142.274 38.2604 142.079 38.0488 141.916 37.7559C141.558 37.5931 141.33 37.3001 141.232 36.877C141.167 36.4212 141.086 35.9818 140.988 35.5586C140.956 35.3958 140.923 35.2168 140.891 35.0215C140.858 34.7936 140.858 34.5658 140.891 34.3379C140.956 33.9798 141.005 33.6055 141.037 33.2148C141.07 32.7917 141.151 32.4336 141.281 32.1406C141.444 31.7826 141.525 31.4245 141.525 31.0664C141.558 30.7083 141.656 30.3503 141.818 29.9922C142.014 29.6667 142.095 29.4876 142.062 29.4551C142.062 29.4225 142.079 29.3737 142.111 29.3086C142.176 29.2109 142.242 29.1133 142.307 29.0156C142.404 28.918 142.486 28.804 142.551 28.6738L142.844 27.9414C142.974 27.7135 143.12 27.4857 143.283 27.2578C143.446 27.0299 143.576 26.7533 143.674 26.4277C143.739 26.2324 143.82 26.0534 143.918 25.8906C144.048 25.7279 144.178 25.5488 144.309 25.3535C144.406 25.1582 144.488 24.9629 144.553 24.7676C144.618 24.5397 144.699 24.3118 144.797 24.084C144.895 23.8236 145.008 23.5632 145.139 23.3027C145.301 23.0423 145.464 22.7819 145.627 22.5215C145.757 22.2611 145.871 22.0658 145.969 21.9355C146.066 21.8053 146.262 21.724 146.555 21.6914C146.685 21.6589 146.831 21.6751 146.994 21.7402C147.157 21.7728 147.32 21.7565 147.482 21.6914C147.906 21.4961 148.199 21.3984 148.361 21.3984C148.524 21.3984 148.638 21.3496 148.703 21.252C149.061 21.2845 149.322 21.3984 149.484 21.5938C149.647 21.7891 149.842 21.9844 150.07 22.1797C149.875 23.1237 149.647 23.8561 149.387 24.377C149.159 24.8652 148.898 25.3861 148.605 25.9395C148.443 26.1999 148.28 26.4928 148.117 26.8184C147.954 27.1439 147.808 27.4368 147.678 27.6973C147.515 28.0553 147.336 28.3809 147.141 28.6738C146.978 28.9342 146.831 29.2435 146.701 29.6016C146.636 29.7643 146.555 29.9271 146.457 30.0898C146.392 30.2201 146.327 30.3665 146.262 30.5293C146.197 30.7572 146.099 30.9688 145.969 31.1641C145.871 31.3268 145.773 31.4896 145.676 31.6523C145.578 31.8477 145.48 32.043 145.383 32.2383C145.285 32.4336 145.204 32.6452 145.139 32.873C144.976 33.2637 144.878 33.5078 144.846 33.6055C144.813 33.6706 144.781 33.7357 144.748 33.8008C144.683 34.1589 144.585 34.4518 144.455 34.6797C144.325 34.9076 144.374 35.0703 144.602 35.168L144.846 35.2656ZM158.078 31.9941C158.339 31.8314 158.55 31.6198 158.713 31.3594C158.876 31.099 159.071 30.8385 159.299 30.5781C159.722 30.0898 160.178 29.6829 160.666 29.3574C160.894 29.0319 161.171 28.7878 161.496 28.625C161.854 28.4297 162.131 28.153 162.326 27.7949C162.391 27.6973 162.44 27.5996 162.473 27.502C162.538 27.4043 162.603 27.3066 162.668 27.209C163.254 26.3952 163.921 25.679 164.67 25.0605C164.865 24.8978 165.044 24.735 165.207 24.5723C165.402 24.4095 165.63 24.2467 165.891 24.084C166.184 23.9212 166.46 23.7096 166.721 23.4492C167.014 23.1888 167.323 22.9935 167.648 22.8633C167.876 22.7656 168.088 22.7005 168.283 22.668C168.479 22.6029 168.69 22.5378 168.918 22.4727C169.146 22.4076 169.341 22.3587 169.504 22.3262C169.699 22.2611 169.911 22.2611 170.139 22.3262C170.66 22.554 171.05 22.9935 171.311 23.6445C171.376 23.8073 171.343 24.1654 171.213 24.7188C171.115 25.2396 170.969 25.8255 170.773 26.4766C170.611 27.0951 170.432 27.6973 170.236 28.2832C170.041 28.8691 169.911 29.2923 169.846 29.5527C169.781 29.8132 169.764 29.9596 169.797 29.9922C169.829 29.9922 169.846 30.0247 169.846 30.0898C169.781 30.2526 169.732 30.3991 169.699 30.5293C169.667 30.6595 169.634 30.806 169.602 30.9688C169.536 31.2292 169.488 31.5872 169.455 32.043C169.423 32.4661 169.439 32.8079 169.504 33.0684C169.862 33.0358 170.041 33.0033 170.041 32.9707C170.074 32.9382 170.122 32.9219 170.188 32.9219C170.285 32.8893 170.383 32.8893 170.48 32.9219C170.611 32.9219 170.725 32.9056 170.822 32.873C171.18 32.7754 171.506 32.6452 171.799 32.4824C172.092 32.2871 172.368 32.0592 172.629 31.7988C173.215 31.5384 173.752 31.278 174.24 31.0176C174.696 30.6921 175.054 30.4642 175.314 30.334C175.607 30.1712 176.031 29.9596 176.584 29.6992C176.779 29.4714 177.056 29.276 177.414 29.1133C177.805 28.918 178.13 28.7064 178.391 28.4785C178.456 28.4134 178.537 28.332 178.635 28.2344C178.732 28.1042 178.83 28.0716 178.928 28.1367C179.09 28.2995 179.188 28.4785 179.221 28.6738C179.286 28.8366 179.302 28.9505 179.27 29.0156C179.009 29.276 178.863 29.4714 178.83 29.6016C178.83 29.7318 178.798 29.8294 178.732 29.8945C178.57 30.0573 178.326 30.2038 178 30.334C177.707 30.4642 177.528 30.5781 177.463 30.6758C177.43 30.7409 177.382 30.806 177.316 30.8711C177.251 30.9362 177.154 31.0176 177.023 31.1152C176.926 31.1803 176.844 31.2454 176.779 31.3105C176.714 31.4082 176.617 31.4733 176.486 31.5059C176.389 31.5059 176.291 31.5221 176.193 31.5547C175.998 31.7174 175.835 31.8639 175.705 31.9941C175.575 32.1243 175.428 32.2708 175.266 32.4336C175.005 32.694 174.842 32.8893 174.777 33.0195C174.712 33.1172 174.533 33.2637 174.24 33.459C174.077 33.5566 173.915 33.6543 173.752 33.752C173.589 33.8496 173.426 33.9473 173.264 34.0449C172.808 34.2728 172.352 34.5495 171.896 34.875C171.441 35.2005 170.985 35.526 170.529 35.8516C170.204 36.0469 169.862 36.2259 169.504 36.3887C169.178 36.5189 168.869 36.6816 168.576 36.877C168.446 36.877 168.348 36.877 168.283 36.877C168.251 36.8444 168.169 36.8607 168.039 36.9258C167.876 36.8281 167.714 36.8281 167.551 36.9258C167.388 36.9909 167.225 36.9909 167.062 36.9258C166.737 36.6654 166.509 36.5026 166.379 36.4375C166.281 36.3724 166.2 36.291 166.135 36.1934C166.07 36.0306 166.037 35.8516 166.037 35.6562C166.07 35.4609 166.037 35.2982 165.939 35.168C165.939 34.4518 165.956 33.7682 165.988 33.1172C166.053 32.4661 166.167 31.7826 166.33 31.0664C166.363 30.8385 166.428 30.5293 166.525 30.1387C166.623 29.7155 166.704 29.3086 166.77 28.918C166.835 28.5273 166.883 28.1855 166.916 27.8926C166.949 27.5996 166.916 27.4206 166.818 27.3555C166.46 27.5508 166.086 27.8438 165.695 28.2344C165.337 28.625 164.995 28.9505 164.67 29.2109C164.41 29.4062 164.149 29.5853 163.889 29.748C163.661 29.9108 163.417 30.0898 163.156 30.2852C162.928 30.4479 162.733 30.6107 162.57 30.7734C162.408 30.9362 162.229 31.1315 162.033 31.3594C161.805 31.5872 161.594 31.8151 161.398 32.043C161.203 32.2383 160.975 32.4336 160.715 32.6289C160.585 32.7591 160.454 32.873 160.324 32.9707C160.227 33.0358 160.129 33.1172 160.031 33.2148C159.868 33.3776 159.706 33.5404 159.543 33.7031C159.413 33.8333 159.234 33.9473 159.006 34.0449C158.811 34.3053 158.55 34.5983 158.225 34.9238C157.932 35.2493 157.622 35.6074 157.297 35.998C157.004 36.3561 156.711 36.7142 156.418 37.0723C156.125 37.4303 155.897 37.7559 155.734 38.0488C155.344 38.3743 154.921 38.651 154.465 38.8789C154.042 39.1393 153.521 39.1719 152.902 38.9766C152.577 38.7812 152.365 38.6185 152.268 38.4883C152.17 38.3581 152.056 38.2604 151.926 38.1953C151.958 37.8372 151.991 37.4954 152.023 37.1699C152.056 36.8444 152.154 36.5026 152.316 36.1445C152.349 36.0794 152.398 36.0143 152.463 35.9492C152.495 35.8516 152.544 35.7539 152.609 35.6562C152.772 35.3633 152.886 35.0378 152.951 34.6797C152.984 34.3216 153.081 33.9798 153.244 33.6543C153.439 33.3288 153.57 33.0684 153.635 32.873C153.667 32.6452 153.732 32.4499 153.83 32.2871C153.895 32.1243 153.993 31.9779 154.123 31.8477C154.221 31.6849 154.302 31.5221 154.367 31.3594C154.432 31.1966 154.546 31.0176 154.709 30.8223C154.872 30.5944 154.986 30.3991 155.051 30.2363C155.148 29.8783 155.262 29.5202 155.393 29.1621C155.523 28.804 155.669 28.446 155.832 28.0879C155.897 27.86 155.962 27.6484 156.027 27.4531C156.092 27.2253 156.174 27.0137 156.271 26.8184C156.434 26.4603 156.597 26.1185 156.76 25.793C156.923 25.4349 157.085 25.0768 157.248 24.7188C157.346 24.5234 157.427 24.3607 157.492 24.2305C157.59 24.0677 157.704 23.9049 157.834 23.7422C157.932 23.5794 158.013 23.4167 158.078 23.2539C158.176 23.0911 158.273 22.9284 158.371 22.7656C158.469 22.6029 158.55 22.4238 158.615 22.2285C158.713 22.0007 158.843 21.7891 159.006 21.5938C159.234 21.3333 159.413 21.0892 159.543 20.8613C159.673 20.6335 159.885 20.487 160.178 20.4219C160.308 20.487 160.438 20.487 160.568 20.4219C160.731 20.3568 160.878 20.3079 161.008 20.2754C161.171 20.2103 161.317 20.1777 161.447 20.1777C161.577 20.1452 161.691 20.194 161.789 20.3242C162.212 20.5846 162.521 20.8125 162.717 21.0078C162.912 21.2031 163.042 21.3822 163.107 21.5449C163.27 21.8379 163.286 22.1471 163.156 22.4727C163.026 22.7656 162.798 23.026 162.473 23.2539C162.342 23.8073 162.115 24.3281 161.789 24.8164C161.464 25.3047 161.171 25.7767 160.91 26.2324C160.845 26.3952 160.78 26.5579 160.715 26.7207C160.65 26.8835 160.585 27.0462 160.52 27.209C160.324 27.6647 160.113 28.1204 159.885 28.5762C159.689 29.0319 159.462 29.4714 159.201 29.8945C159.071 30.1549 158.957 30.3665 158.859 30.5293C158.762 30.6921 158.664 30.8385 158.566 30.9688C158.469 31.0664 158.387 31.1966 158.322 31.3594C158.257 31.5221 158.176 31.7337 158.078 31.9941ZM189.719 25.793C189.784 25.8581 189.865 25.8092 189.963 25.6465C190.093 25.4512 190.191 25.3047 190.256 25.207C190.321 25.0443 190.37 24.8815 190.402 24.7188C190.467 24.556 190.533 24.3932 190.598 24.2305C190.793 23.8724 191.037 23.498 191.33 23.1074C191.656 22.7168 191.9 22.3424 192.062 21.9844C192.128 21.9193 192.193 21.8704 192.258 21.8379C192.355 21.7728 192.437 21.6914 192.502 21.5938C192.762 21.5612 192.941 21.5286 193.039 21.4961C193.137 21.4635 193.234 21.4147 193.332 21.3496C193.69 21.4473 193.918 21.724 194.016 22.1797C193.983 22.4401 193.869 22.6517 193.674 22.8145C193.511 22.9447 193.397 23.1237 193.332 23.3516C193.267 23.4818 193.234 23.612 193.234 23.7422C193.267 23.8724 193.251 24.0026 193.186 24.1328C193.023 24.6862 192.795 25.207 192.502 25.6953C192.242 26.1836 192.014 26.7044 191.818 27.2578C191.656 27.5833 191.493 27.9089 191.33 28.2344C191.2 28.5599 191.086 28.9017 190.988 29.2598C190.63 29.9108 190.288 30.5944 189.963 31.3105C189.637 32.0267 189.296 32.7591 188.938 33.5078C189.23 33.4427 189.491 33.3288 189.719 33.166C189.947 32.9707 190.191 32.7917 190.451 32.6289C190.614 32.5638 190.76 32.515 190.891 32.4824C191.021 32.4173 191.167 32.3522 191.33 32.2871C191.623 32.0918 191.818 31.9616 191.916 31.8965C192.046 31.8314 192.176 31.7663 192.307 31.7012C192.404 31.6361 192.502 31.571 192.6 31.5059C192.697 31.4082 192.811 31.3268 192.941 31.2617C193.007 31.1966 193.088 31.1478 193.186 31.1152C193.316 31.0827 193.413 31.0339 193.479 30.9688C193.641 30.9036 193.788 30.8223 193.918 30.7246C194.048 30.627 194.195 30.5293 194.357 30.4316C194.553 30.334 194.715 30.2363 194.846 30.1387C195.008 30.041 195.204 29.9596 195.432 29.8945C195.529 29.862 195.627 29.8294 195.725 29.7969C195.822 29.7318 195.92 29.6667 196.018 29.6016C196.115 29.569 196.213 29.5202 196.311 29.4551C196.408 29.39 196.49 29.3411 196.555 29.3086C196.75 29.2435 196.864 29.1947 196.896 29.1621C196.929 29.1296 196.978 29.097 197.043 29.0645C197.368 28.9668 197.548 28.9017 197.58 28.8691C197.645 28.8366 197.71 28.7878 197.775 28.7227C198.166 28.4622 198.459 28.3158 198.654 28.2832C198.85 28.2181 199.159 28.0553 199.582 27.7949C199.777 27.8275 199.956 27.8438 200.119 27.8438C200.282 27.8112 200.428 27.86 200.559 27.9902C200.428 28.6087 200.184 29.0319 199.826 29.2598C199.501 29.4551 199.143 29.6341 198.752 29.7969C198.199 30.2852 197.727 30.6758 197.336 30.9688C196.945 31.2292 196.441 31.5547 195.822 31.9453C195.432 32.1081 195.09 32.2871 194.797 32.4824C194.504 32.4824 194.276 32.5312 194.113 32.6289C193.983 32.7266 193.837 32.8242 193.674 32.9219C193.544 32.987 193.397 33.0358 193.234 33.0684C193.104 33.1009 192.974 33.1497 192.844 33.2148C192.518 33.4102 192.307 33.5241 192.209 33.5566C192.144 33.5892 192.079 33.638 192.014 33.7031C191.688 34.1263 191.379 34.403 191.086 34.5332C190.793 34.6634 190.533 34.8587 190.305 35.1191C189.751 35.2819 189.296 35.5423 188.938 35.9004C188.579 36.2585 188.156 36.5514 187.668 36.7793C187.408 37.528 187.18 38.2767 186.984 39.0254C186.822 39.7741 186.61 40.5065 186.35 41.2227C186.089 41.9714 185.812 42.7201 185.52 43.4688C185.259 44.2174 185.031 44.9824 184.836 45.7637C184.478 46.3822 184.185 47.0495 183.957 47.7656C183.729 48.4818 183.452 49.1979 183.127 49.9141C182.867 50.1094 182.671 50.3861 182.541 50.7441C182.443 51.1022 182.248 51.3952 181.955 51.623C181.792 51.9811 181.564 52.2741 181.271 52.502C180.979 52.7624 180.702 53.0228 180.441 53.2832C180.376 53.3483 180.311 53.4134 180.246 53.4785C180.181 53.5762 180.116 53.6738 180.051 53.7715C179.66 54.1621 179.237 54.5527 178.781 54.9434C178.326 55.3665 177.919 55.806 177.561 56.2617C177.202 56.4896 176.877 56.7337 176.584 56.9941C176.291 57.2546 175.998 57.5312 175.705 57.8242C175.542 57.8893 175.412 57.9382 175.314 57.9707C175.184 58.0358 175.054 58.0195 174.924 57.9219C174.598 58.0195 174.257 58.0358 173.898 57.9707C173.54 57.9056 173.394 57.694 173.459 57.3359C173.264 57.1732 173.15 57.0267 173.117 56.8965C173.085 56.7988 173.036 56.6849 172.971 56.5547C173.101 56.2943 173.101 56.0501 172.971 55.8223C172.84 55.627 172.775 55.4479 172.775 55.2852C172.775 54.862 172.824 54.4551 172.922 54.0645C172.987 53.6413 173.101 53.2669 173.264 52.9414C173.394 52.6484 173.54 52.3229 173.703 51.9648C173.898 51.5091 174.077 51.0697 174.24 50.6465C174.37 50.2559 174.517 49.8327 174.68 49.377C174.908 49.0189 175.07 48.6283 175.168 48.2051C175.233 47.8145 175.347 47.4238 175.51 47.0332C175.64 46.7728 175.77 46.5124 175.9 46.252C176.063 46.0241 176.161 45.7799 176.193 45.5195C176.454 45.0312 176.73 44.5918 177.023 44.2012C177.349 43.8105 177.626 43.3711 177.854 42.8828C178.7 41.6784 179.676 40.6204 180.783 39.709C181.89 38.8301 183.013 37.9674 184.152 37.1211C184.283 36.9583 184.364 36.8607 184.396 36.8281C184.462 36.763 184.51 36.7142 184.543 36.6816C184.576 36.6491 184.624 36.6165 184.689 36.584C184.755 36.5514 184.868 36.4538 185.031 36.291C185.096 36.2585 185.129 36.1934 185.129 36.0957C185.161 35.998 185.227 35.9004 185.324 35.8027C185.585 35.0866 185.894 34.2891 186.252 33.4102C186.61 32.4987 186.87 31.75 187.033 31.1641C186.87 31.2292 186.74 31.3431 186.643 31.5059C186.577 31.6686 186.496 31.7988 186.398 31.8965C186.333 31.9941 186.252 32.0755 186.154 32.1406C186.057 32.2057 185.975 32.2708 185.91 32.3359C185.845 32.401 185.764 32.4824 185.666 32.5801C185.568 32.6452 185.487 32.7266 185.422 32.8242C185.194 33.0195 184.999 33.1986 184.836 33.3613C184.706 33.4915 184.576 33.6217 184.445 33.752C184.348 33.8822 184.217 34.0286 184.055 34.1914C183.924 34.3216 183.745 34.4844 183.518 34.6797C183.257 35.0378 182.98 35.3796 182.688 35.7051C182.427 35.998 182.118 36.2422 181.76 36.4375C181.271 36.7956 180.767 37.0885 180.246 37.3164C179.725 37.5443 179.237 37.7396 178.781 37.9023C178.553 37.9674 178.326 38.0326 178.098 38.0977C177.902 38.1953 177.723 38.2441 177.561 38.2441C177.495 38.2767 177.414 38.2767 177.316 38.2441C177.219 38.2441 177.121 38.2441 177.023 38.2441C176.503 38.2441 176.063 38.179 175.705 38.0488C175.607 37.9837 175.526 37.9349 175.461 37.9023C175.396 37.8372 175.331 37.7396 175.266 37.6094C175.201 37.5443 175.119 37.4629 175.021 37.3652C174.924 37.235 174.842 37.1211 174.777 37.0234C174.712 36.8607 174.68 36.6979 174.68 36.5352C174.68 36.3398 174.647 36.1608 174.582 35.998C174.517 35.6725 174.436 35.3796 174.338 35.1191C174.24 34.8262 174.224 34.5332 174.289 34.2402C174.322 34.1426 174.354 34.0612 174.387 33.9961C174.419 33.8984 174.419 33.8008 174.387 33.7031C174.354 33.6055 174.322 33.5078 174.289 33.4102C174.224 33.3125 174.175 33.2148 174.143 33.1172C174.077 33.0195 174.029 32.9219 173.996 32.8242C173.931 32.694 173.898 32.5801 173.898 32.4824C173.866 32.3197 173.898 32.1569 173.996 31.9941C174.061 31.7988 174.061 31.6361 173.996 31.5059C174.094 31.278 174.191 31.0501 174.289 30.8223C174.354 30.5944 174.468 30.3828 174.631 30.1875C174.859 29.862 175.021 29.6016 175.119 29.4062C175.184 29.1784 175.282 28.9831 175.412 28.8203C175.575 28.5273 175.738 28.2669 175.9 28.0391C176.096 27.8112 176.275 27.5671 176.438 27.3066C177.056 26.2324 177.74 25.2559 178.488 24.377C178.618 24.3118 178.732 24.263 178.83 24.2305C178.928 24.1979 178.993 24.1165 179.025 23.9863C179.807 23.6283 180.523 23.2376 181.174 22.8145C181.532 22.7168 181.841 22.554 182.102 22.3262C182.395 22.0658 182.72 21.8704 183.078 21.7402C183.371 21.61 183.68 21.4473 184.006 21.252C184.331 21.0566 184.673 20.9427 185.031 20.9102C185.357 20.9102 185.601 20.8613 185.764 20.7637C185.926 20.666 186.089 20.5684 186.252 20.4707C186.74 20.2103 187.261 20.0964 187.814 20.1289C188.075 20.3893 188.335 20.5846 188.596 20.7148C188.889 20.8451 189.117 21.0566 189.279 21.3496C189.344 21.4798 189.377 21.6426 189.377 21.8379C189.41 22.0332 189.442 22.2448 189.475 22.4727C189.54 22.6354 189.589 22.8145 189.621 23.0098C189.686 23.1725 189.735 23.3353 189.768 23.498C189.8 23.8887 189.784 24.2793 189.719 24.6699C189.686 25.0605 189.686 25.4349 189.719 25.793ZM187.131 23.7422C187.001 23.8398 186.854 23.8887 186.691 23.8887C186.561 23.8887 186.431 23.9212 186.301 23.9863C186.236 24.0514 186.154 24.1165 186.057 24.1816C185.992 24.2142 185.926 24.263 185.861 24.3281C185.568 24.4909 185.243 24.6374 184.885 24.7676C184.559 24.8652 184.266 24.9954 184.006 25.1582C183.843 25.2884 183.713 25.4349 183.615 25.5977C183.518 25.7279 183.387 25.8418 183.225 25.9395C183.029 26.0697 182.818 26.1836 182.59 26.2812C182.395 26.3789 182.215 26.5091 182.053 26.6719C181.955 26.7695 181.874 26.8672 181.809 26.9648C181.776 27.0625 181.678 27.1113 181.516 27.1113C181.158 27.7949 180.718 28.4134 180.197 28.9668C179.676 29.5202 179.253 30.1549 178.928 30.8711C178.765 30.9362 178.651 31.0501 178.586 31.2129C178.553 31.3757 178.488 31.5384 178.391 31.7012C178.033 32.3522 177.886 32.8568 177.951 33.2148C178.049 33.5404 178.114 33.8659 178.146 34.1914C178.342 34.4518 178.602 34.5332 178.928 34.4355C179.286 34.3053 179.595 34.1589 179.855 33.9961C180.181 33.7682 180.49 33.5241 180.783 33.2637C181.109 32.9707 181.434 32.6777 181.76 32.3848C182.085 32.1243 182.378 31.8477 182.639 31.5547C182.932 31.2292 183.208 30.9199 183.469 30.627C183.599 30.4642 183.729 30.334 183.859 30.2363C183.99 30.1387 184.12 30.0085 184.25 29.8457C184.413 29.6829 184.559 29.5365 184.689 29.4062C184.82 29.2435 184.966 29.1133 185.129 29.0156C185.389 28.6576 185.617 28.3158 185.812 27.9902C186.04 27.6647 186.285 27.3555 186.545 27.0625C186.708 26.6393 186.87 26.2487 187.033 25.8906C187.229 25.5326 187.391 25.1582 187.521 24.7676C187.456 24.6048 187.424 24.4258 187.424 24.2305C187.424 24.0026 187.342 23.8398 187.18 23.7422H187.131ZM183.176 41.418C183.078 41.4505 182.98 41.4993 182.883 41.5645C182.818 41.6621 182.72 41.7598 182.59 41.8574C182.264 42.1829 181.939 42.5085 181.613 42.834C181.32 43.1921 181.044 43.5827 180.783 44.0059C180.49 44.429 180.148 44.8359 179.758 45.2266C179.4 45.6172 179.156 46.0566 179.025 46.5449C178.667 47.0983 178.342 47.668 178.049 48.2539C177.788 48.8398 177.577 49.4909 177.414 50.207C177.349 50.5977 177.284 50.9069 177.219 51.1348C177.154 51.3626 177.105 51.5905 177.072 51.8184C177.268 51.623 177.463 51.4115 177.658 51.1836C177.886 50.9883 178.081 50.793 178.244 50.5977C178.309 50.5326 178.358 50.4512 178.391 50.3535C178.456 50.2559 178.521 50.1745 178.586 50.1094C178.977 49.556 179.383 49.0189 179.807 48.498C180.23 47.9772 180.62 47.4401 180.979 46.8867C181.141 46.6914 181.288 46.4961 181.418 46.3008C181.548 46.138 181.678 45.959 181.809 45.7637C182.395 44.9499 182.85 44.071 183.176 43.127C183.501 42.2155 183.843 41.2715 184.201 40.2949C184.006 40.4902 183.811 40.653 183.615 40.7832C183.452 40.946 183.306 41.1576 183.176 41.418Z" fill="#00ACFF"/>
</svg>
