<svg xmlns="http://www.w3.org/2000/svg" width="45" height="45" viewBox="0 0 45 45" fill="none">
  <g clip-path="url(#clip0_1_1649)">
    <path d="M34.7416 15.9409L25.1959 18.0284L29.8633 1.68394C30.2688 0.263404 28.3694 -0.646621 27.5177 0.56326L8.89877 27.016C8.19869 28.0106 9.11127 29.3455 10.2919 29.0547L18.7975 26.9609L14.1454 43.3209C13.7445 44.7306 15.6106 45.629 16.4723 44.4666L36.0824 18.0139C36.806 17.0375 35.9287 15.6815 34.7416 15.9409ZM18.6577 37.0913L21.9541 25.4988C22.2298 24.5295 21.3554 23.6159 20.3711 23.8582L13.0823 25.6525L25.1884 8.45311L22.0551 19.4254C21.7824 20.3804 22.6282 21.289 23.6043 21.0752L31.8709 19.2674L18.6577 37.0913Z" fill="white"/>
    <path d="M33.8904 37.0904L30.7267 37.0377L32.407 33.733C32.737 33.084 32.4785 32.2904 31.8295 31.9605C31.1804 31.6304 30.3869 31.8891 30.0569 32.5381L27.4204 37.7232C26.8841 38.7747 27.586 39.4639 28.5969 39.6391L31.7531 39.6918L30.053 43.092C29.7274 43.7432 29.9913 44.535 30.6425 44.8607C31.295 45.1869 32.0861 44.921 32.4111 44.2712L35.0476 38.9982C35.4806 38.1318 34.854 37.1047 33.8904 37.0904Z" fill="white"/>
    <path d="M13.3662 0.142838C12.715 -0.18268 11.9232 0.081232 11.5976 0.732355L8.96111 6.00532C8.53234 6.86297 9.14382 7.91308 10.1479 7.91308H13.2802L11.5976 11.2783C11.272 11.9295 11.536 12.7212 12.1871 13.0469C12.8396 13.3731 13.6308 13.1073 13.9558 12.4574L16.5922 7.18444C17.0309 6.30711 16.3857 5.27668 15.4131 5.27668H12.2732L13.9558 1.91148C14.2814 1.26027 14.0174 0.468443 13.3662 0.142838Z" fill="white"/>
  </g>
  <defs>
    <clipPath id="clip0_1_1649">
      <rect width="45" height="45" fill="white"/>
    </clipPath>
  </defs>
</svg>