<svg xmlns="http://www.w3.org/2000/svg" width="30" height="30" viewBox="0 0 30 30" fill="none">
  <g clip-path="url(#clip0_1_1617)">
    <path d="M12.3631 8.21224V11.8484L12.6206 12.1059C12.7029 12.1881 14.6799 14.1211 18.5155 14.1211C22.3511 14.1211 24.3281 12.1881 24.4103 12.1058L24.6678 11.8484V8.21218L26.4256 7.50905V12.3633H28.1834V6.80593L29.6711 6.21091L18.5155 1.74864L7.35986 6.21091L12.3631 8.21224ZM22.91 11.0747C22.3505 11.4925 20.8984 12.3633 18.5155 12.3633C16.1325 12.3633 14.6804 11.4925 14.1209 11.0747V8.9153L18.5155 10.6731L22.91 8.9153V11.0747ZM24.938 6.21091L18.5155 8.77989L12.0929 6.21091L18.5155 3.64192L24.938 6.21091Z" fill="white"/>
    <path d="M6.77365 7.65275L5.5307 6.4098L4.40617 7.53434C4.60117 4.31625 7.28055 1.75781 10.5467 1.75781V0C6.30426 0 2.83164 3.35725 2.64496 7.55449L1.50021 6.4098L0.257324 7.65275L3.51549 10.9109L6.77365 7.65275Z" fill="white"/>
    <path d="M29.7425 20.5894L26.4844 17.3313L23.2262 20.5894L24.4692 21.8324L25.6055 20.6961V22.0898C25.6055 25.4822 22.8455 28.2422 19.4531 28.2422V30C23.8148 30 27.3633 26.4515 27.3633 22.0898V20.6961L28.4997 21.8324L29.7425 20.5894Z" fill="white"/>
    <path d="M21.1522 24.668V19.1107L22.6398 18.5157L11.4842 14.0534L0.328613 18.5157L5.33187 20.517V24.1532L5.58933 24.4107C5.6716 24.4929 7.64861 26.4258 11.4842 26.4258C15.3198 26.4258 17.2968 24.4929 17.3791 24.4106L17.6366 24.1532V20.5169L19.3944 19.8138V24.668H21.1522ZM15.8787 23.3795C15.3192 23.7973 13.8672 24.668 11.4842 24.668C9.10127 24.668 7.6492 23.7973 7.08969 23.3795V21.2201L11.4842 22.9779L15.8787 21.2201V23.3795ZM11.4842 21.0847L5.0617 18.5157L11.4842 15.9467L17.9067 18.5157L11.4842 21.0847Z" fill="white"/>
  </g>
  <defs>
    <clipPath id="clip0_1_1617">
      <rect width="30" height="30" fill="white"/>
    </clipPath>
  </defs>
</svg>