<svg xmlns="http://www.w3.org/2000/svg" width="54" height="54" viewBox="0 0 54 54" fill="none">
  <g clip-path="url(#clip0_1_1263)" filter="url(#filter0_d_1_1263)">
    <path d="M38.6241 16.2906C38.5999 16.2744 38.5749 16.2594 38.5492 16.2457L36.846 15.3286L27.4012 20.3292C27.1503 20.4621 26.8498 20.4621 26.5989 20.3292L17.1541 15.3286L15.4509 16.2457C15.037 16.4655 14.8795 16.9791 15.0992 17.3931C15.1129 17.4188 15.1278 17.4438 15.1441 17.468L27 23.7449L38.856 17.468C39.1171 17.0788 39.0133 16.5517 38.6241 16.2906Z" fill="#00D9FF"/>
    <path d="M38.8966 21.7357C38.8172 21.5886 38.6965 21.4679 38.5494 21.3886L36.8463 20.4714L27.4015 25.472C27.1505 25.6049 26.8501 25.6049 26.5992 25.472L17.1543 20.4714L15.4512 21.3886C15.0346 21.6134 14.8792 22.1334 15.104 22.55C15.1834 22.6971 15.3041 22.8178 15.4512 22.8971L26.594 28.8971C26.8476 29.0337 27.153 29.0337 27.4066 28.8971L38.5494 22.8971C38.966 22.6723 39.1214 22.1523 38.8966 21.7357Z" fill="#00D9FF"/>
    <path d="M38.6241 11.1485C38.5999 11.1323 38.5749 11.1173 38.5492 11.1036L27.4063 5.10364C27.1527 4.96708 26.8474 4.96708 26.5938 5.10364L15.4509 11.1036C15.037 11.3234 14.8795 11.8371 15.0992 12.251C15.1129 12.2767 15.1278 12.3017 15.1441 12.3259L27 18.6028L38.856 12.3259C39.1171 11.9367 39.0133 11.4096 38.6241 11.1485Z" fill="#00D9FF"/>
  </g>
  <defs>
    <filter id="filter0_d_1_1263" x="0" y="0" width="54" height="54" filterUnits="userSpaceOnUse" color-interpolation-filters="sRGB">
      <feFlood flood-opacity="0" result="BackgroundImageFix"/>
      <feColorMatrix in="SourceAlpha" type="matrix" values="0 0 0 0 0 0 0 0 0 0 0 0 0 0 0 0 0 0 127 0" result="hardAlpha"/>
      <feOffset dy="10"/>
      <feGaussianBlur stdDeviation="7.5"/>
      <feColorMatrix type="matrix" values="0 0 0 0 0 0 0 0 0 0.606323 0 0 0 0 0.7125 0 0 0 0.2 0"/>
      <feBlend mode="normal" in2="BackgroundImageFix" result="effect1_dropShadow_1_1263"/>
      <feBlend mode="normal" in="SourceGraphic" in2="effect1_dropShadow_1_1263" result="shape"/>
    </filter>
    <clipPath id="clip0_1_1263">
      <rect width="24" height="24" fill="white" transform="translate(15 5)"/>
    </clipPath>
  </defs>
</svg>