<svg width="100" height="42" viewBox="0 0 100 42" fill="none" xmlns="http://www.w3.org/2000/svg">
<path d="M3.97594 41.2101C3.3786 41.2101 2.82794 41.1074 2.32394 40.9021C1.82927 40.6874 1.4046 40.3888 1.04994 40.0061C0.704604 39.6141 0.466604 39.1474 0.335938 38.6061L2.28194 38.1861C2.40327 38.5688 2.61327 38.8674 2.91194 39.0821C3.21994 39.2968 3.58394 39.4041 4.00394 39.4041C4.3026 39.4041 4.56394 39.3528 4.78794 39.2501C5.02127 39.1381 5.1986 38.9888 5.31994 38.8021C5.4506 38.6154 5.51594 38.4008 5.51594 38.1581C5.51594 37.8501 5.39927 37.6028 5.16594 37.4161C4.9326 37.2201 4.5546 37.0614 4.03194 36.9401L3.58394 36.8421C2.55727 36.6181 1.80127 36.2588 1.31594 35.7641C0.830604 35.2601 0.587938 34.6488 0.587938 33.9301C0.587938 33.4821 0.676604 33.0714 0.853938 32.6981C1.03127 32.3248 1.27394 32.0028 1.58194 31.7321C1.89927 31.4521 2.26794 31.2374 2.68794 31.0881C3.10794 30.9294 3.5606 30.8501 4.04594 30.8501C4.5966 30.8501 5.10994 30.9528 5.58594 31.1581C6.06194 31.3634 6.46327 31.6574 6.78994 32.0401C7.1166 32.4228 7.33594 32.8754 7.44794 33.3981L5.52994 33.8181C5.41794 33.4448 5.22194 33.1601 4.94194 32.9641C4.67127 32.7588 4.35394 32.6561 3.98994 32.6561C3.73794 32.6561 3.50927 32.7074 3.30394 32.8101C3.10794 32.9034 2.94927 33.0388 2.82794 33.2161C2.71594 33.3841 2.65994 33.5754 2.65994 33.7901C2.65994 34.1168 2.78594 34.3688 3.03794 34.5461C3.28994 34.7141 3.66327 34.8541 4.15794 34.9661L4.60594 35.0641C5.62327 35.2881 6.3746 35.6428 6.85994 36.1281C7.3546 36.6134 7.60194 37.2341 7.60194 37.9901C7.60194 38.4661 7.5086 38.9001 7.32194 39.2921C7.1446 39.6841 6.8926 40.0248 6.56594 40.3141C6.23927 40.6034 5.8566 40.8274 5.41794 40.9861C4.97927 41.1354 4.4986 41.2101 3.97594 41.2101Z" fill="#00ACFF"/>
<path d="M11.2353 41.0001V32.9081H8.43527V31.0601H16.1213V32.9081H13.3213V41.0001H11.2353Z" fill="#00ACFF"/>
<path d="M21.7333 41.2801C21.08 41.2801 20.492 41.1821 19.9693 40.9861C19.4466 40.7808 18.9986 40.4914 18.6253 40.1181C18.252 39.7354 17.9626 39.2828 17.7573 38.7601C17.5613 38.2281 17.4633 37.6354 17.4633 36.9821V31.0601H19.5493V36.8841C19.5493 37.3881 19.638 37.8268 19.8153 38.2001C19.9926 38.5734 20.2446 38.8628 20.5713 39.0681C20.9073 39.2641 21.2993 39.3621 21.7473 39.3621C22.1953 39.3621 22.5826 39.2641 22.9093 39.0681C23.236 38.8628 23.488 38.5734 23.6653 38.2001C23.852 37.8268 23.9453 37.3881 23.9453 36.8841V31.0601H26.0313V36.9821C26.0313 37.6354 25.9286 38.2281 25.7233 38.7601C25.5273 39.2828 25.238 39.7354 24.8553 40.1181C24.482 40.4914 24.0293 40.7808 23.4973 40.9861C22.9746 41.1821 22.3866 41.2801 21.7333 41.2801Z" fill="#00ACFF"/>
<path d="M27.7068 41.0001V31.0601H31.5708C32.3548 31.0601 33.0688 31.1814 33.7128 31.4241C34.3568 31.6574 34.9121 31.9934 35.3788 32.4321C35.8455 32.8708 36.2048 33.3934 36.4568 34.0001C36.7088 34.6068 36.8348 35.2788 36.8348 36.0161C36.8348 36.7534 36.7041 37.4301 36.4428 38.0461C36.1908 38.6528 35.8315 39.1801 35.3648 39.6281C34.8981 40.0668 34.3381 40.4074 33.6848 40.6501C33.0408 40.8834 32.3268 41.0001 31.5428 41.0001H27.7068ZM29.7928 39.1521H31.4448C32.1075 39.1521 32.6815 39.0261 33.1668 38.7741C33.6521 38.5221 34.0255 38.1628 34.2868 37.6961C34.5481 37.2294 34.6788 36.6741 34.6788 36.0301C34.6788 35.3861 34.5481 34.8308 34.2868 34.3641C34.0255 33.8974 33.6521 33.5381 33.1668 33.2861C32.6815 33.0341 32.1075 32.9081 31.4448 32.9081H29.7928V39.1521Z" fill="#00ACFF"/>
<path d="M40.3076 41.0001V37.1361L36.8356 31.0601H39.1596L41.3856 35.2461L43.5976 31.0601H45.8656L42.3936 37.1361V41.0001H40.3076Z" fill="#00ACFF"/>
<path d="M44.8216 41.0001L48.7696 31.0601H50.9816L54.9436 41.0001H52.8016L51.9896 38.8161H47.6916L46.8796 41.0001H44.8216ZM48.3496 37.0521H51.3316L49.8336 33.0901L48.3496 37.0521Z" fill="#00ACFF"/>
<path d="M57.2474 41.0561C57.014 41.0561 56.804 41.0001 56.6174 40.8881C56.44 40.7761 56.2954 40.6268 56.1834 40.4401C56.0714 40.2534 56.0154 40.0481 56.0154 39.8241C56.0154 39.6001 56.0714 39.3948 56.1834 39.2081C56.2954 39.0214 56.44 38.8721 56.6174 38.7601C56.804 38.6481 57.014 38.5921 57.2474 38.5921C57.4807 38.5921 57.686 38.6481 57.8634 38.7601C58.05 38.8721 58.1994 39.0214 58.3114 39.2081C58.4234 39.3948 58.4794 39.6001 58.4794 39.8241C58.4794 40.0481 58.4234 40.2534 58.3114 40.4401C58.1994 40.6268 58.05 40.7761 57.8634 40.8881C57.686 41.0001 57.4807 41.0561 57.2474 41.0561Z" fill="#00ACFF"/>
<path d="M1.68018 21.0001V1.12006H14.5322V5.18006H6.44018V8.82006H13.5802V12.8801H6.44018V16.9401H14.8122V21.0001H1.68018Z" fill="#292E37"/>
<path d="M17.895 21.0001V1.12006H26.043C27.5924 1.12006 29.011 1.36272 30.299 1.84806C31.587 2.31472 32.6977 2.98672 33.631 3.86406C34.583 4.74139 35.311 5.78673 35.815 7.00006C36.3377 8.21339 36.599 9.55739 36.599 11.0321C36.599 12.5067 36.3377 13.8507 35.815 15.0641C35.311 16.2774 34.583 17.3321 33.631 18.2281C32.6977 19.1054 31.5777 19.7867 30.271 20.2721C28.983 20.7574 27.555 21.0001 25.987 21.0001H17.895ZM22.767 16.6881H25.735C26.9297 16.6881 27.9564 16.4641 28.815 16.0161C29.6924 15.5494 30.3644 14.8961 30.831 14.0561C31.3164 13.2161 31.559 12.2174 31.559 11.0601C31.559 9.90273 31.3164 8.90406 30.831 8.06406C30.3644 7.22406 29.6924 6.58006 28.815 6.13206C27.9564 5.66539 26.9297 5.43206 25.735 5.43206H22.767V16.6881Z" fill="#292E37"/>
<path d="M47.9839 21.5601C46.6399 21.5601 45.4265 21.3547 44.3439 20.9441C43.2799 20.5334 42.3559 19.9454 41.5719 19.1801C40.8065 18.4147 40.2185 17.5001 39.8079 16.4361C39.3972 15.3534 39.1919 14.1494 39.1919 12.8241V1.12006H44.0639V12.6001C44.0639 13.5147 44.2225 14.3081 44.5399 14.9801C44.8759 15.6521 45.3332 16.1747 45.9119 16.5481C46.5092 16.9027 47.2185 17.0801 48.0399 17.0801C48.8612 17.0801 49.5612 16.9027 50.1399 16.5481C50.7372 16.1747 51.1945 15.6521 51.5119 14.9801C51.8479 14.3081 52.0159 13.5147 52.0159 12.6001V1.12006H56.8879V12.8241C56.8879 14.1494 56.6732 15.3534 56.2439 16.4361C55.8332 17.5001 55.2359 18.4147 54.4519 19.1801C53.6865 19.9454 52.7532 20.5334 51.6519 20.9441C50.5505 21.3547 49.3279 21.5601 47.9839 21.5601Z" fill="#292E37"/>
<path d="M69.5504 21.5601C68.3931 21.5601 67.3011 21.3921 66.2744 21.0561C65.2664 20.7201 64.3424 20.2441 63.5024 19.6281C62.6811 19.0121 61.9718 18.2841 61.3744 17.4441C60.7771 16.5854 60.3104 15.6334 59.9744 14.5881C59.6571 13.5241 59.4984 12.3947 59.4984 11.2001C59.4984 10.0054 59.6571 8.87606 59.9744 7.81206C60.3104 6.72939 60.7771 5.74939 61.3744 4.87206C61.9904 3.97606 62.7184 3.21073 63.5584 2.57606C64.3984 1.92272 65.3224 1.42806 66.3304 1.09206C67.3571 0.737392 68.4398 0.560059 69.5784 0.560059C70.6424 0.560059 71.6504 0.709392 72.6024 1.00806C73.5731 1.30673 74.4411 1.73606 75.2064 2.29606C75.9904 2.83739 76.6531 3.50006 77.1944 4.28406C77.7544 5.04939 78.1744 5.91739 78.4544 6.88806L73.6944 7.95206C73.2838 7.01873 72.7144 6.30006 71.9864 5.79606C71.2584 5.29206 70.4278 5.04006 69.4944 5.04006C68.7851 5.04006 68.1224 5.19872 67.5064 5.51606C66.9091 5.81473 66.3864 6.24406 65.9384 6.80406C65.4904 7.34539 65.1451 7.98939 64.9024 8.73606C64.6598 9.46406 64.5384 10.2667 64.5384 11.1441C64.5384 12.0027 64.6598 12.7961 64.9024 13.5241C65.1451 14.2521 65.4904 14.8867 65.9384 15.4281C66.3864 15.9507 66.9184 16.3614 67.5344 16.6601C68.1504 16.9401 68.8224 17.0801 69.5504 17.0801C70.5211 17.0801 71.3704 16.8374 72.0984 16.3521C72.8451 15.8481 73.4424 15.1201 73.8904 14.1681L78.6504 15.2321C78.2771 16.5387 77.6518 17.6681 76.7744 18.6201C75.9158 19.5534 74.8704 20.2814 73.6384 20.8041C72.4064 21.3081 71.0438 21.5601 69.5504 21.5601Z" fill="#292E37"/>
<path d="M79.0321 21.0001L86.9001 1.12006H92.0801L99.9481 21.0001H94.9081L93.5081 17.1361H85.3041L83.9041 21.0001H79.0321ZM86.7881 13.0481H92.0241L89.3921 5.79606L86.7881 13.0481Z" fill="#292E37"/>
</svg>
