<svg xmlns="http://www.w3.org/2000/svg" width="45" height="45" viewBox="0 0 45 45" fill="none">
  <g clip-path="url(#clip0_1_1630)">
    <path d="M41.1798 26.9451C40.8159 26.0452 39.7913 25.6103 38.8913 25.9743C37.9912 26.3382 37.5565 27.3627 37.9203 28.2628L39.9906 33.3838L33.842 30.6734C33.3969 30.4772 32.8904 30.4741 32.443 30.665C30.3417 31.5616 28.0907 32.0162 25.7524 32.0162C16.3418 32.0162 10.0201 24.6479 10.0201 17.7659C10.0201 9.90837 17.0776 3.51574 25.7524 3.51574C34.4273 3.51574 41.4848 9.90837 41.4848 17.7659C41.4848 18.379 41.4277 19.113 41.3283 19.7798C41.185 20.74 41.8473 21.6344 42.8075 21.7777C43.7678 21.9213 44.6622 21.2587 44.8054 20.2985C44.9312 19.4556 45.0004 18.5562 45.0004 17.7659C45.0004 12.9909 42.9784 8.51038 39.3066 5.14989C35.6783 1.82903 30.8647 0.00012207 25.7524 0.00012207C20.6402 0.00012207 15.8266 1.82903 12.1982 5.1498C8.91712 8.15284 6.9547 12.0506 6.57405 16.2534C2.44698 18.9865 0.000546888 23.366 0.000546888 28.0833C0.000546888 31.0301 0.928933 33.8261 2.69615 36.2323L0.128691 42.5834C-0.139463 43.2466 0.0211133 44.0063 0.534833 44.5042C0.869607 44.8289 1.31073 45.0001 1.75871 45.0001C1.99803 45 2.23938 44.9513 2.46737 44.8507L9.87029 41.5873C11.7325 42.2805 13.701 42.6315 15.7328 42.6315C15.7768 42.6315 15.8199 42.6281 15.8631 42.6249C18.8019 42.6026 21.6589 41.8297 24.1334 40.3831C26.3498 39.0872 28.173 37.3071 29.4512 35.2048C30.6992 34.9807 31.9189 34.6421 33.1028 34.1896L42.5335 38.3468C42.7616 38.4473 43.0029 38.4962 43.2422 38.4962C43.6902 38.4961 44.1314 38.3249 44.4662 38.0004C44.9799 37.5024 45.1405 36.7428 44.8723 36.0795L41.1798 26.9451ZM15.733 39.1114C15.709 39.1114 15.6856 39.114 15.6618 39.115C13.8669 39.1058 12.1394 38.753 10.526 38.0647C10.0787 37.8737 9.57217 37.8768 9.12709 38.073L5.01057 39.8876L6.3385 36.6027C6.58398 35.9955 6.47139 35.302 6.04653 34.8036C4.39111 32.8615 3.51616 30.5378 3.51616 28.0833C3.51616 25.2743 4.69785 22.6127 6.76539 20.5945C7.40909 24.1036 9.22535 27.4603 11.9652 30.0972C15.3745 33.3784 19.8842 35.2793 24.7537 35.5081C22.4675 37.7586 19.1959 39.1114 15.733 39.1114Z" fill="white"/>
    <path d="M25.6641 19.5997C26.6349 19.5997 27.4219 18.8127 27.4219 17.8419C27.4219 16.8711 26.6349 16.0841 25.6641 16.0841C24.6932 16.0841 23.9062 16.8711 23.9062 17.8419C23.9062 18.8127 24.6932 19.5997 25.6641 19.5997Z" fill="white"/>
    <path d="M32.6953 19.5997C33.6661 19.5997 34.4531 18.8127 34.4531 17.8419C34.4531 16.8711 33.6661 16.0841 32.6953 16.0841C31.7245 16.0841 30.9375 16.8711 30.9375 17.8419C30.9375 18.8127 31.7245 19.5997 32.6953 19.5997Z" fill="white"/>
    <path d="M18.6333 19.5997C19.6041 19.5997 20.3911 18.8127 20.3911 17.8419C20.3911 16.8711 19.6041 16.0841 18.6333 16.0841C17.6625 16.0841 16.8755 16.8711 16.8755 17.8419C16.8755 18.8127 17.6625 19.5997 18.6333 19.5997Z" fill="white"/>
  </g>
  <defs>
    <clipPath id="clip0_1_1630">
      <rect width="45" height="45" fill="white"/>
    </clipPath>
  </defs>
</svg>