<svg xmlns="http://www.w3.org/2000/svg" width="54" height="54" viewBox="0 0 54 54" fill="none">
  <g clip-path="url(#clip0_1_1279)" filter="url(#filter0_d_1_1279)">
    <path d="M32.8014 12.5035C33.0709 13.2576 32.9099 14.1419 32.2946 14.7573C31.4512 15.6007 30.0861 15.6008 29.2426 14.7573C28.3992 13.9139 28.399 12.5488 29.2426 11.7053C29.8549 11.0929 30.7396 10.928 31.4964 11.1984L37.6949 5L24.1611 7.50627L20.3633 16.0514C20.5939 16.282 27.1406 22.8288 27.9486 23.6367L27.9486 23.6367L36.4937 19.8389L38.9999 6.30512L32.8014 12.5035Z" fill="#7118EF"/>
    <path d="M18.052 15.7747L15 18.8267L25.1734 29.0001L28.2254 25.9481C27.5199 25.2426 18.5623 16.285 18.052 15.7747Z" fill="#7118EF"/>
    <path d="M30.0493 13.2314C30.0493 13.6289 30.3712 13.9507 30.7687 13.9507C30.9608 13.9507 31.1415 13.8759 31.2773 13.7401L31.2773 13.74C31.5584 13.4589 31.5584 13.0039 31.2773 12.7226C31.1415 12.5868 30.9608 12.512 30.7687 12.512C30.3711 12.512 30.0493 12.8338 30.0493 13.2314Z" fill="#7118EF"/>
  </g>
  <defs>
    <filter id="filter0_d_1_1279" x="0" y="0" width="54" height="54" filterUnits="userSpaceOnUse" color-interpolation-filters="sRGB">
      <feFlood flood-opacity="0" result="BackgroundImageFix"/>
      <feColorMatrix in="SourceAlpha" type="matrix" values="0 0 0 0 0 0 0 0 0 0 0 0 0 0 0 0 0 0 127 0" result="hardAlpha"/>
      <feOffset dy="10"/>
      <feGaussianBlur stdDeviation="7.5"/>
      <feColorMatrix type="matrix" values="0 0 0 0 0.443137 0 0 0 0 0.0941176 0 0 0 0 0.937255 0 0 0 0.2 0"/>
      <feBlend mode="normal" in2="BackgroundImageFix" result="effect1_dropShadow_1_1279"/>
      <feBlend mode="normal" in="SourceGraphic" in2="effect1_dropShadow_1_1279" result="shape"/>
    </filter>
    <clipPath id="clip0_1_1279">
      <rect width="24" height="24" fill="white" transform="translate(15 5)"/>
    </clipPath>
  </defs>
</svg>