<svg xmlns="http://www.w3.org/2000/svg" width="30" height="30" viewBox="0 0 30 30" fill="none">
  <g clip-path="url(#clip0_1_1465)">
    <path d="M29.9988 16.8394C29.9988 9.58168 24.0958 3.77551 16.838 3.77551C14.5155 3.77551 12.3866 4.35615 10.4512 5.42064L5.32238 0.291785C5.03206 0.0982577 4.74174 0.00146484 4.45142 0.00146484C4.06436 0.0982577 3.87078 0.291785 3.67725 0.582105L2.90308 2.90455L0.677433 3.67872C0.29032 3.87224 0.0967929 4.06577 0 4.45288C0 4.7432 0.0967929 5.03352 0.29032 5.32384L5.41911 10.4526C4.35468 12.388 3.77404 14.6138 3.77404 16.9362C3.77404 24.194 9.67701 30.0002 16.9348 30.0002C24.1925 30.0002 30.0956 24.0972 29.9988 16.8394ZM5.03206 2.71102L9.28995 6.96891L8.99963 7.64629L4.74174 3.38834L5.03206 2.71102ZM2.70956 5.03347L3.38699 4.7432L7.64488 9.00109L6.96745 9.29136L2.70956 5.03347ZM16.9348 28.0648C10.7416 28.0648 5.70949 23.0327 5.70949 16.9362C5.70949 14.904 6.1934 12.9686 7.25783 11.3235L9.19322 10.5493L16.1607 17.5168C16.3542 17.7103 16.6445 17.8071 16.8381 17.8071C17.0316 17.8071 17.3219 17.7103 17.5155 17.5168C17.9026 17.1298 17.9026 16.5491 17.5155 16.162L10.548 9.19456L11.3222 7.25917C12.9673 6.29148 14.9026 5.71084 16.9349 5.71084C23.1282 5.71084 28.1602 10.7429 28.1602 16.8394C28.0634 23.0327 23.0313 28.0648 16.9348 28.0648Z" fill="white"/>
    <path d="M22.8376 10.839C21.2892 9.29064 19.1603 8.41968 16.8378 8.41968C15.7733 8.41968 14.6121 8.61321 13.6444 9.09705C13.1606 9.29058 12.8703 9.87122 13.1606 10.3551C13.3541 10.8389 13.9347 11.1292 14.4186 10.8389C15.1928 10.5486 16.0637 10.3551 16.8379 10.3551C18.5797 10.3551 20.2249 11.0324 21.4828 12.2905C22.7408 13.5485 23.4182 15.1935 23.4182 16.9354C23.4182 20.5159 20.5151 23.419 16.9346 23.419C15.1928 23.419 13.5476 22.7416 12.3865 21.4836C11.1284 20.2256 10.4511 18.5805 10.4511 16.8387C10.4511 15.9678 10.6446 15.1935 10.9349 14.4194C11.1284 13.9355 10.9349 13.3549 10.3543 13.1614C9.87043 12.9678 9.28979 13.1614 9.09627 13.742C8.70921 14.7097 8.51562 15.7741 8.51562 16.8387C8.51562 19.0644 9.38653 21.1934 11.0317 22.8384C12.58 24.3868 14.7089 25.2577 17.0314 25.2577C21.6764 25.2577 25.4505 21.4837 25.4505 16.8387C25.2568 14.613 24.3859 12.484 22.8376 10.839Z" fill="white"/>
    <path d="M18.0959 13.2581C17.612 13.0645 17.0314 13.3549 16.8378 13.8387C16.6443 14.3225 16.9346 14.9032 17.4185 15.0967C18.1927 15.387 18.6765 16.0644 18.6765 16.8386C18.6765 17.8063 17.9023 18.6772 16.8379 18.6772C16.0637 18.6772 15.3863 18.1933 15.096 17.4192C14.9025 16.9353 14.4187 16.645 13.838 16.8385C13.3542 17.032 13.0639 17.516 13.2574 18.0965C13.838 19.6449 15.2895 20.6126 16.8378 20.6126C18.87 20.6126 20.6118 18.9675 20.6118 16.8386C20.6119 15.1935 19.5474 13.8387 18.0959 13.2581Z" fill="white"/>
  </g>
  <defs>
    <clipPath id="clip0_1_1465">
      <rect width="30" height="30" fill="white"/>
    </clipPath>
  </defs>
</svg>