<svg width="161" height="64" viewBox="0 0 161 64" fill="none" xmlns="http://www.w3.org/2000/svg">
<path d="M158.076 39.0765C157.79 42.2129 155.473 45.1074 151.307 47.6328C147.152 50.1519 141.248 52.245 134.002 53.8034C119.515 56.9189 99.7746 57.8732 78.2225 55.9131C56.6704 53.953 37.4265 49.4532 23.739 43.7753C16.8924 40.9352 11.4634 37.8114 7.83084 34.584C4.18914 31.3485 2.43163 28.0834 2.71688 24.947C3.00213 21.8106 5.31983 18.9162 9.48547 16.3907C13.6406 13.8716 19.5441 11.7785 26.7908 10.2201C41.278 7.10466 61.018 6.15031 82.57 8.11042C104.122 10.0705 123.366 14.5704 137.054 20.2483C143.9 23.0884 149.329 26.2122 152.962 29.4395C156.603 32.675 158.361 35.9401 158.076 39.0765Z" stroke="#C3E3F8" stroke-opacity="0.8"/>
<path d="M157.495 24.5267C157.796 27.6769 156.069 30.9603 152.476 34.2183C148.892 37.4687 143.526 40.6212 136.752 43.4939C123.21 49.2368 104.151 53.816 82.7888 55.8541C61.4264 57.8922 41.8453 56.9995 27.4618 53.9208C20.267 52.3809 14.4015 50.2999 10.2674 47.7859C6.1237 45.266 3.80712 42.3684 3.50657 39.2181C3.20601 36.0678 4.93288 32.7844 8.52534 29.5265C12.1095 26.2761 17.4757 23.1235 24.2495 20.2509C37.7914 14.508 56.8504 9.92877 78.2128 7.89067C99.5752 5.85257 119.156 6.74529 133.54 9.82394C140.735 11.3639 146.6 13.4448 150.734 15.9589C154.878 18.4788 157.194 21.3764 157.495 24.5267Z" stroke="#C3E3F8"/>
<path d="M57.6405 25.7397L54.0565 35.5117H51.6765L48.0925 25.7397H50.1925L52.8805 33.5097L55.5545 25.7397H57.6405ZM59.8096 26.8317C59.4643 26.8317 59.1749 26.7244 58.9416 26.5097C58.7176 26.2857 58.6056 26.0104 58.6056 25.6837C58.6056 25.3571 58.7176 25.0864 58.9416 24.8717C59.1749 24.6477 59.4643 24.5357 59.8096 24.5357C60.1549 24.5357 60.4396 24.6477 60.6636 24.8717C60.8969 25.0864 61.0136 25.3571 61.0136 25.6837C61.0136 26.0104 60.8969 26.2857 60.6636 26.5097C60.4396 26.7244 60.1549 26.8317 59.8096 26.8317ZM60.7756 27.7557V35.5117H58.8156V27.7557H60.7756ZM69.9221 31.4657C69.9221 31.7457 69.9034 31.9977 69.8661 32.2217H64.1961C64.2428 32.7817 64.4388 33.2204 64.7841 33.5377C65.1294 33.8551 65.5541 34.0137 66.0581 34.0137C66.7861 34.0137 67.3041 33.7011 67.6121 33.0757H69.7261C69.5021 33.8224 69.0728 34.4384 68.4381 34.9237C67.8034 35.3997 67.0241 35.6377 66.1001 35.6377C65.3534 35.6377 64.6814 35.4744 64.0841 35.1477C63.4961 34.8117 63.0341 34.3404 62.6981 33.7337C62.3714 33.1271 62.2081 32.4271 62.2081 31.6337C62.2081 30.8311 62.3714 30.1264 62.6981 29.5197C63.0248 28.9131 63.4821 28.4464 64.0701 28.1197C64.6581 27.7931 65.3348 27.6297 66.1001 27.6297C66.8374 27.6297 67.4954 27.7884 68.0741 28.1057C68.6621 28.4231 69.1148 28.8757 69.4321 29.4637C69.7588 30.0424 69.9221 30.7097 69.9221 31.4657ZM67.8921 30.9057C67.8828 30.4017 67.7008 30.0004 67.3461 29.7017C66.9914 29.3937 66.5574 29.2397 66.0441 29.2397C65.5588 29.2397 65.1481 29.3891 64.8121 29.6877C64.4854 29.9771 64.2848 30.3831 64.2101 30.9057H67.8921ZM82.1047 27.7557L79.8367 35.5117H77.7227L76.3087 30.0937L74.8947 35.5117H72.7667L70.4847 27.7557H72.4727L73.8447 33.6637L75.3287 27.7557H77.4007L78.8567 33.6497L80.2287 27.7557H82.1047ZM85.9972 31.6057C85.9972 30.8217 86.1512 30.1264 86.4592 29.5197C86.7765 28.9131 87.2012 28.4464 87.7332 28.1197C88.2745 27.7931 88.8765 27.6297 89.5392 27.6297C90.1178 27.6297 90.6218 27.7464 91.0512 27.9797C91.4898 28.2131 91.8398 28.5071 92.1012 28.8617V27.7557H94.0752V35.5117H92.1012V34.3777C91.8492 34.7417 91.4992 35.0451 91.0512 35.2877C90.6125 35.5211 90.1038 35.6377 89.5252 35.6377C88.8718 35.6377 88.2745 35.4697 87.7332 35.1337C87.2012 34.7977 86.7765 34.3264 86.4592 33.7197C86.1512 33.1037 85.9972 32.3991 85.9972 31.6057ZM92.1012 31.6337C92.1012 31.1577 92.0078 30.7517 91.8212 30.4157C91.6345 30.0704 91.3825 29.8091 91.0652 29.6317C90.7478 29.4451 90.4072 29.3517 90.0432 29.3517C89.6792 29.3517 89.3432 29.4404 89.0352 29.6177C88.7272 29.7951 88.4752 30.0564 88.2792 30.4017C88.0925 30.7377 87.9992 31.1391 87.9992 31.6057C87.9992 32.0724 88.0925 32.4831 88.2792 32.8377C88.4752 33.1831 88.7272 33.4491 89.0352 33.6357C89.3525 33.8224 89.6885 33.9157 90.0432 33.9157C90.4072 33.9157 90.7478 33.8271 91.0652 33.6497C91.3825 33.4631 91.6345 33.2017 91.8212 32.8657C92.0078 32.5204 92.1012 32.1097 92.1012 31.6337ZM97.9494 25.1517V35.5117H95.9894V25.1517H97.9494ZM101.846 25.1517V35.5117H99.8859V25.1517H101.846Z" fill="#19B0FF"/>
<path d="M105.816 32.8067L108.106 30.5117L105.816 28.2167L106.521 27.5117L109.521 30.5117L106.521 33.5117L105.816 32.8067Z" fill="#19B0FF"/>
</svg>
